<svg version="1.1" id="Layer_1" xmlns="http://www.w3.org/2000/svg" xmlns:xlink="http://www.w3.org/1999/xlink" x="0px" y="0px"
	 width="100%" viewBox="0 0 594 214" enable-background="new 0 0 594 214" xml:space="preserve">
<path fill="#FEFFFE" opacity="1.000000" stroke="none" 
	d="
M595.000000,2.000000 
	C595.000000,72.970032 595.000000,143.940063 595.000000,214.955048 
	C397.113556,214.955048 199.227066,214.955048 1.000000,214.955048 
	C1.000000,144.310379 1.000000,73.620201 1.221052,2.359442 
	C1.715399,1.587675 1.901364,1.324722 2.000000,1.000000 
	C199.023315,1.000000 396.046631,1.000000 593.641785,1.220437 
	C594.410828,1.718545 594.672913,1.904921 595.000000,2.000000 
M89.482620,144.908676 
	C89.665520,145.380768 89.848412,145.852844 90.052551,147.152084 
	C92.729431,155.542786 95.406311,163.933472 98.414375,173.108109 
	C103.776703,178.015305 110.402046,177.969971 117.754646,178.128693 
	C120.820679,178.041183 123.886719,177.953659 127.834526,178.017548 
	C131.447815,177.651627 135.129364,177.599716 138.655579,176.833221 
	C142.328522,176.034851 146.180359,174.965775 147.429077,169.812180 
	C147.624649,168.983215 147.820221,168.154251 148.343811,166.844269 
	C148.578094,165.901138 148.812363,164.958023 149.455338,163.411591 
	C151.083496,157.325623 152.711670,151.239670 154.679733,144.683029 
	C154.756256,144.119812 154.832794,143.556595 155.244965,142.412445 
	C155.570251,141.121796 155.895538,139.831161 156.697891,138.345978 
	C156.796677,138.205521 156.895462,138.065079 157.807114,137.862167 
	C160.965912,134.865372 161.868515,127.876137 159.576904,123.795036 
	C159.576904,123.795036 159.633270,123.720924 160.189545,122.867836 
	C158.776581,122.311806 157.363632,121.755783 155.235474,120.831345 
	C149.001892,120.565338 142.768326,120.299332 135.471939,119.838295 
	C132.368668,119.537651 129.265411,119.237000 126.230919,118.570000 
	C126.230919,118.570000 126.096718,118.222252 126.675163,117.623932 
	C128.120361,112.867195 131.062042,111.822578 136.144669,111.665840 
	C144.118408,111.419952 152.033005,109.256767 160.622833,107.968391 
	C161.412079,107.629272 162.201340,107.290154 163.702057,106.918243 
	C164.598709,106.525986 165.719818,106.350609 166.348740,105.699677 
	C168.048599,103.940399 169.539093,101.978844 171.112625,100.097527 
	C168.880630,98.769142 166.665710,97.410194 164.399231,96.143509 
	C164.036087,95.940559 163.442307,96.150337 162.270691,95.824669 
	C159.203232,95.960388 156.135788,96.096107 152.334442,96.107346 
	C150.883835,96.378708 149.433228,96.650070 147.242447,96.786194 
	C146.493103,96.841545 145.743759,96.896896 144.990143,96.330330 
	C145.003922,95.915939 145.017700,95.501541 145.719574,94.783134 
	C157.611343,90.058853 169.522125,85.381035 181.363998,80.534813 
	C182.486038,80.075623 183.175919,78.560402 184.066452,77.535469 
	C182.884918,76.972290 181.672821,75.867035 180.526688,75.931671 
	C171.333801,76.450089 162.152618,77.179817 152.971878,77.896355 
	C152.607025,77.924835 152.282532,78.470474 151.122147,78.885193 
	C149.752213,78.900330 148.382263,78.915459 146.284210,78.722527 
	C146.033173,77.985107 145.366745,76.788872 145.595673,76.581596 
	C147.767395,74.615410 149.965714,72.629372 152.395050,71.006317 
	C159.451492,66.291847 165.384827,60.626270 169.797882,51.777027 
	C166.654861,51.623482 164.373398,51.512024 161.362900,51.349823 
	C160.980881,52.426647 160.598846,53.503468 159.411804,54.415051 
	C158.607391,54.515881 157.802979,54.616711 156.466385,54.286491 
	C156.244354,54.233395 156.022339,54.180294 155.701004,53.602795 
	C155.176712,54.087543 154.652420,54.572292 153.547729,54.998852 
	C153.360489,55.051247 153.173264,55.103645 152.274323,54.982613 
	C150.875000,55.246857 149.475693,55.511101 147.920990,55.249813 
	C146.963623,55.221184 146.006271,55.192551 144.360107,55.121597 
	C143.217590,55.873981 142.075058,56.626366 140.852783,57.407887 
	C140.852783,57.407887 140.790207,57.350502 139.949265,56.703915 
	C138.303268,57.162052 136.657288,57.620190 134.264008,57.614182 
	C134.903183,56.478584 135.561539,55.353287 136.178360,54.205677 
	C139.544830,47.942329 143.293137,41.846188 146.151199,35.358231 
	C149.038528,28.803852 145.785217,25.041849 138.651779,25.936077 
	C137.348389,26.099466 136.050919,26.439407 134.796036,26.839922 
	C124.824287,30.022596 118.764145,37.449379 113.808563,46.394409 
	C113.808563,46.394409 113.918808,46.612591 113.466408,47.304298 
	C113.617073,47.534958 113.767738,47.765617 113.994995,47.975517 
	C113.994995,47.975517 113.970818,47.899929 113.231644,47.709526 
	C111.806541,50.964264 110.381439,54.218998 109.214035,56.885178 
	C105.474525,55.504719 101.844696,54.071434 98.128189,52.917202 
	C97.689934,52.781094 96.776024,54.176529 96.001137,55.754963 
	C95.972481,56.351974 95.943832,56.948990 95.437080,57.250835 
	C94.703369,57.117764 93.969650,56.984692 93.138580,56.857761 
	C93.138580,56.857761 93.087456,56.940845 93.623741,56.248734 
	C92.932114,55.810497 92.240479,55.372261 91.605560,54.851608 
	C91.605560,54.851608 91.601158,54.660652 90.936264,54.043579 
	C88.407944,52.911713 85.970619,51.357491 83.321411,50.786678 
	C81.337105,50.359119 79.079910,51.198021 77.000816,51.551300 
	C77.000816,51.551300 76.907425,51.519348 76.076988,51.435184 
	C76.234993,54.098866 75.498451,57.309395 76.726807,59.318748 
	C79.816841,64.373436 83.801521,68.880058 87.410851,73.619110 
	C88.558937,75.126541 89.654465,76.674004 90.774040,78.203156 
	C81.188011,78.326042 72.514694,77.316216 63.821312,76.527565 
	C60.185684,76.197739 56.479897,76.048759 52.861027,76.394135 
	C51.223587,76.550407 49.720402,78.113411 47.727333,79.379303 
	C46.994747,79.510796 46.262165,79.642288 44.391666,79.978020 
	C47.025406,80.875175 48.522209,81.385048 50.775051,82.128822 
	C58.872021,84.011536 66.968994,85.894249 75.598808,88.130028 
	C77.131752,88.056175 78.664703,87.982323 80.512756,88.160461 
	C80.946930,88.147301 81.381096,88.134140 82.061668,88.898376 
	C82.685387,88.517883 83.309097,88.137398 84.699898,87.815376 
	C85.465096,87.881531 86.230286,87.947685 86.940971,88.633842 
	C87.555206,92.021004 88.929527,89.183426 89.959572,89.803917 
	C92.448296,90.864281 94.937012,91.924637 97.731293,93.115189 
	C85.534126,93.115189 73.771233,93.115189 61.228127,92.980957 
	C57.421890,93.559715 53.615650,94.138481 49.809414,94.717239 
	C49.687351,95.246101 49.565292,95.774956 49.443230,96.303818 
	C50.969765,97.168648 52.496304,98.033485 54.672848,99.259140 
	C58.782433,100.513107 62.892017,101.767075 67.373642,103.327599 
	C67.373642,103.327599 67.853775,103.284454 68.287018,103.660606 
	C69.042511,103.481033 69.798004,103.301460 70.658859,103.121292 
	C70.658859,103.121292 70.648094,103.226097 70.517303,103.879547 
	C71.110855,104.082817 71.704414,104.286087 72.889809,104.944939 
	C74.877197,105.446625 76.864578,105.948303 79.421478,106.857399 
	C86.849106,109.467667 94.362488,110.120750 102.689896,107.872520 
	C104.226379,107.663689 105.762871,107.454865 107.519836,107.930016 
	C109.265190,110.141556 111.010544,112.353096 113.081390,115.218658 
	C113.416237,116.493889 113.751083,117.769119 114.048424,118.995995 
	C114.048424,118.995995 114.025375,119.052681 113.337013,118.933502 
	C112.885902,119.028076 112.434784,119.122658 111.215820,119.086647 
	C110.455795,119.219131 109.695778,119.351616 108.080986,119.300537 
	C105.072289,119.586647 102.063599,119.872757 98.237968,120.019890 
	C95.836220,120.311501 93.434479,120.603111 90.555862,120.675209 
	C89.724731,120.850838 88.893600,121.026466 87.298271,121.103569 
	C85.746140,121.871712 82.946022,122.517944 82.857025,123.429008 
	C82.462982,127.462929 82.433319,131.650589 83.175903,135.613205 
	C83.435249,136.997177 86.293167,137.894180 87.959320,139.724487 
	C88.474869,141.281372 88.990417,142.838272 89.482620,144.908676 
M449.728333,160.484085 
	C449.728333,152.559082 449.728333,144.634094 449.728333,136.709091 
	C450.096924,136.681442 450.465485,136.653793 450.834076,136.626144 
	C454.220886,148.726227 457.607697,160.826309 460.986237,172.896912 
	C466.789398,172.896912 472.239075,172.896912 477.680237,172.896912 
	C481.186218,160.630630 484.631927,148.575348 488.077606,136.520065 
	C488.423706,136.576935 488.769806,136.633804 489.115906,136.690674 
	C489.115906,148.698257 489.115906,160.705841 489.115906,172.823120 
	C495.276611,172.823120 500.996613,172.823120 506.645142,172.823120 
	C506.645142,153.156876 506.645142,133.795410 506.645142,114.180771 
	C498.297821,114.180771 490.320862,114.052643 482.356903,114.316780 
	C481.140747,114.357117 479.269714,116.009071 478.915558,117.259453 
	C476.380035,126.212234 474.192413,135.262939 471.805634,144.259033 
	C471.394836,145.807419 470.562042,147.243851 469.616150,149.450745 
	C466.468353,137.063690 463.577179,125.686409 460.753937,114.576508 
	C450.801758,114.576508 441.416779,114.576508 432.035278,114.576508 
	C432.035278,134.217361 432.035278,153.459412 432.035278,172.755814 
	C438.001221,172.755814 443.701263,172.755814 449.728210,172.755814 
	C449.728210,168.751755 449.728210,165.113525 449.728333,160.484085 
M234.256836,142.639328 
	C236.975235,139.913528 240.875656,137.658768 242.185593,134.371689 
	C245.801910,125.297066 240.331421,116.743881 229.884506,115.227852 
	C222.356216,114.135376 214.622025,114.380112 206.975632,114.208061 
	C200.551346,114.063507 194.121246,114.178345 187.555115,114.178345 
	C187.555115,134.118988 187.555115,153.372894 187.555115,173.125839 
	C198.407806,173.125839 209.027695,173.264252 219.641220,173.064774 
	C224.602188,172.971527 229.661285,172.720596 234.476974,171.648026 
	C240.388397,170.331436 243.758301,166.262283 244.302246,159.949554 
	C245.004715,151.797165 242.461029,147.586319 234.750046,144.613022 
	C234.225952,144.410919 233.977341,143.494431 234.256836,142.639328 
M369.149750,161.210892 
	C377.853729,178.227707 411.286713,178.601852 420.292480,161.561707 
	C426.382690,150.038132 426.729919,138.126465 420.606079,126.660629 
	C414.421967,115.081978 399.362000,110.433990 384.583862,114.701103 
	C374.971313,117.476692 368.778168,123.756943 366.291443,133.376419 
	C363.890961,142.662323 364.418671,151.819946 369.149750,161.210892 
M359.602905,137.159348 
	C357.891113,127.791885 353.459229,120.367668 344.556488,116.157867 
	C324.883179,106.855095 303.996094,117.166046 300.527039,138.461426 
	C298.167938,152.943024 303.757812,170.449463 323.804016,173.685257 
	C340.538757,176.386536 354.596802,169.191864 358.393677,154.820297 
	C359.805756,149.475449 359.365540,143.641220 359.602905,137.159348 
M265.344238,114.177338 
	C260.427032,114.177338 255.509811,114.177338 250.542542,114.177338 
	C250.542542,134.197205 250.542542,153.450165 250.542542,172.911407 
	C266.246338,172.911407 281.669983,172.911407 297.352600,172.911407 
	C297.352600,167.944595 297.352600,163.191986 297.352600,157.973694 
	C288.597931,157.973694 280.021973,157.973694 271.037140,157.973694 
	C271.037140,143.267105 271.037140,129.015701 271.037140,114.453278 
	C269.199554,114.346230 267.750183,114.261803 265.344238,114.177338 
z"/>
<path fill="#F6F6F6" opacity="1.000000" stroke="none" 
	d="
M595.000000,1.500000 
	C594.672913,1.904921 594.410828,1.718545 594.106812,1.220437 
	C594.333313,1.000000 594.666687,1.000000 595.000000,1.500000 
z"/>
<path fill="#F6F6F6" opacity="1.000000" stroke="none" 
	d="
M1.500000,1.000000 
	C1.901364,1.324722 1.715399,1.587675 1.221052,1.894430 
	C1.000000,1.666667 1.000000,1.333333 1.500000,1.000000 
z"/>
<path fill="#278805" opacity="1.000000" stroke="none" 
	d="
M449.728271,160.979706 
	C449.728210,165.113525 449.728210,168.751755 449.728210,172.755814 
	C443.701263,172.755814 438.001221,172.755814 432.035278,172.755814 
	C432.035278,153.459412 432.035278,134.217361 432.035278,114.576508 
	C441.416779,114.576508 450.801758,114.576508 460.753937,114.576508 
	C463.577179,125.686409 466.468353,137.063690 469.616150,149.450745 
	C470.562042,147.243851 471.394836,145.807419 471.805634,144.259033 
	C474.192413,135.262939 476.380035,126.212234 478.915558,117.259453 
	C479.269714,116.009071 481.140747,114.357117 482.356903,114.316780 
	C490.320862,114.052643 498.297821,114.180771 506.645142,114.180771 
	C506.645142,133.795410 506.645142,153.156876 506.645142,172.823120 
	C500.996613,172.823120 495.276611,172.823120 489.115906,172.823120 
	C489.115906,160.705841 489.115906,148.698257 489.115906,136.690674 
	C488.769806,136.633804 488.423706,136.576935 488.077606,136.520065 
	C484.631927,148.575348 481.186218,160.630630 477.680237,172.896912 
	C472.239075,172.896912 466.789398,172.896912 460.986237,172.896912 
	C457.607697,160.826309 454.220886,148.726227 450.834076,136.626144 
	C450.465485,136.653793 450.096924,136.681442 449.728333,136.709091 
	C449.728333,144.634094 449.728333,152.559082 449.728271,160.979706 
z"/>
<path fill="#278805" opacity="1.000000" stroke="none" 
	d="
M233.928711,142.774750 
	C233.977341,143.494431 234.225952,144.410919 234.750046,144.613022 
	C242.461029,147.586319 245.004715,151.797165 244.302246,159.949554 
	C243.758301,166.262283 240.388397,170.331436 234.476974,171.648026 
	C229.661285,172.720596 224.602188,172.971527 219.641220,173.064774 
	C209.027695,173.264252 198.407806,173.125839 187.555115,173.125839 
	C187.555115,153.372894 187.555115,134.118988 187.555115,114.178345 
	C194.121246,114.178345 200.551346,114.063507 206.975632,114.208061 
	C214.622025,114.380112 222.356216,114.135376 229.884506,115.227852 
	C240.331421,116.743881 245.801910,125.297066 242.185593,134.371689 
	C240.875656,137.658768 236.975235,139.913528 233.928711,142.774750 
M218.784988,159.762772 
	C220.361389,158.181808 223.134644,156.690292 223.260895,155.000961 
	C223.510956,151.655014 220.365753,151.080917 217.533997,151.052979 
	C214.274078,151.020798 211.013596,151.045502 207.715973,151.045502 
	C207.715973,154.289612 207.715973,156.866302 207.715973,159.812042 
	C211.333603,159.812042 214.633041,159.812042 218.784988,159.762772 
M215.976776,128.613098 
	C213.226074,128.613098 210.475388,128.613098 207.817627,128.613098 
	C207.817627,131.822098 207.817627,134.359543 207.817627,137.180832 
	C210.852493,137.180832 213.484299,137.213150 216.114944,137.171997 
	C218.898117,137.128448 221.662445,136.758316 221.922104,133.229950 
	C222.178970,129.739395 219.800980,128.744720 215.976776,128.613098 
z"/>
<path fill="#268705" opacity="1.000000" stroke="none" 
	d="
M368.984436,160.877655 
	C364.418671,151.819946 363.890961,142.662323 366.291443,133.376419 
	C368.778168,123.756943 374.971313,117.476692 384.583862,114.701103 
	C399.362000,110.433990 414.421967,115.081978 420.606079,126.660629 
	C426.729919,138.126465 426.382690,150.038132 420.292480,161.561707 
	C411.286713,178.601852 377.853729,178.227707 368.984436,160.877655 
M403.291412,143.506561 
	C402.965179,140.545181 403.407990,137.167831 402.094910,134.740234 
	C400.799377,132.345108 397.982483,130.027634 395.371460,129.272781 
	C391.894501,128.267609 388.114655,130.416656 387.727203,133.992355 
	C387.026550,140.459000 386.981903,147.137161 387.892792,153.552460 
	C388.166321,155.479019 392.336761,157.619202 395.047089,158.238388 
	C398.424835,159.010056 401.211700,156.744110 402.097595,153.285797 
	C402.830292,150.425415 402.917603,147.399719 403.291412,143.506561 
z"/>
<path fill="#278805" opacity="1.000000" stroke="none" 
	d="
M359.686462,137.594757 
	C359.365540,143.641220 359.805756,149.475449 358.393677,154.820297 
	C354.596802,169.191864 340.538757,176.386536 323.804016,173.685257 
	C303.757812,170.449463 298.167938,152.943024 300.527039,138.461426 
	C303.996094,117.166046 324.883179,106.855095 344.556488,116.157867 
	C353.459229,120.367668 357.891113,127.791885 359.686462,137.594757 
M338.386414,139.276138 
	C338.244537,138.128815 338.198730,136.959641 337.943695,135.838043 
	C336.990387,131.645538 334.596680,129.022552 330.036987,129.067902 
	C325.504272,129.112991 322.638306,131.701126 322.317871,135.944763 
	C321.899445,141.485657 321.943237,147.145493 322.607849,152.655289 
	C323.069794,156.485153 326.194092,158.462341 330.197083,158.428055 
	C334.225128,158.393555 337.002777,156.323074 337.632477,152.448593 
	C338.289246,148.407440 338.182251,144.242126 338.386414,139.276138 
z"/>
<path fill="#2D8B0D" opacity="1.000000" stroke="none" 
	d="
M147.012329,78.930588 
	C148.382263,78.915459 149.752213,78.900330 151.550629,79.203796 
	C151.986786,80.021187 151.994461,80.519958 151.633423,81.025101 
	C150.290298,81.238297 149.315903,81.445137 148.088409,81.705696 
	C149.028641,82.887222 149.622177,83.633102 150.061417,84.678650 
	C149.451813,85.998642 148.996506,87.018974 148.451828,88.312706 
	C147.698853,89.501183 147.075623,90.449196 146.362167,91.323624 
	C145.295837,92.630554 144.166016,93.885681 142.850555,95.350243 
	C142.093231,95.677361 141.548523,95.817093 140.947113,95.609955 
	C140.268387,94.850937 139.685852,94.168854 139.017883,94.071228 
	C135.192642,93.512138 132.799866,95.574295 130.974136,98.650764 
	C130.456543,99.522926 129.705902,100.256783 129.062149,101.054077 
	C129.992157,101.707474 130.922180,102.360870 131.977356,103.229584 
	C132.329926,103.715752 132.620178,103.861008 132.977783,104.154510 
	C132.982864,104.610916 132.983444,104.793488 133.024017,105.329163 
	C135.090332,108.328659 136.616058,106.847412 138.461502,105.001869 
	C139.760635,103.084343 140.704224,101.235725 141.759277,98.945496 
	C142.444595,98.456329 143.018417,98.408783 143.412018,98.708908 
	C143.231796,99.699562 143.231796,100.342537 143.231796,100.985519 
	C143.447113,100.978394 143.662430,100.971260 143.877747,100.964134 
	C143.818848,100.088402 143.759949,99.212669 143.730042,98.164581 
	C143.899323,97.763954 144.101151,97.673866 144.717682,97.808563 
	C145.792496,96.826157 148.309845,101.126839 147.982620,96.921432 
	C149.433228,96.650070 150.883835,96.378708 152.850861,96.381516 
	C154.560043,97.431000 155.899261,99.002518 156.915024,98.815651 
	C159.019440,98.428505 160.951935,97.106750 162.955139,96.169312 
	C163.442307,96.150337 164.036087,95.940559 164.399231,96.143509 
	C166.665710,97.410194 168.880630,98.769142 171.112625,100.097527 
	C169.539093,101.978844 168.048599,103.940399 166.348740,105.699677 
	C165.719818,106.350609 164.598709,106.525986 163.343521,106.571304 
	C162.157913,105.109482 161.330841,103.994606 160.186874,102.452576 
	C159.103149,104.384796 158.463028,105.526085 157.868866,106.585457 
	C158.672668,107.089836 159.322662,107.497704 159.972656,107.905563 
	C152.033005,109.256767 144.118408,111.419952 136.144669,111.665840 
	C131.062042,111.822578 128.120361,112.867195 126.329758,118.006439 
	C125.948761,118.602272 126.008026,118.784744 126.162148,118.936356 
	C129.265411,119.237000 132.368668,119.537651 135.392822,120.189758 
	C131.387238,120.955879 127.460777,121.370552 123.534317,121.785217 
	C123.535431,122.281433 123.536537,122.777657 123.537643,123.273872 
	C133.863083,123.273872 144.188522,123.273872 154.990082,123.273872 
	C154.985428,123.283928 155.468048,122.241837 155.950668,121.199753 
	C157.363632,121.755783 158.776581,122.311806 159.530807,123.120667 
	C155.434830,124.759804 156.975174,126.930954 157.995605,129.267487 
	C158.137665,129.802139 158.266190,130.087311 158.394714,130.372482 
	C158.522354,130.277206 158.768051,130.109497 158.760468,130.097153 
	C158.527893,129.717972 158.270523,129.354004 158.153748,128.675995 
	C158.731339,126.869102 159.172150,125.373909 159.612961,123.878723 
	C161.868515,127.876137 160.965912,134.865372 157.293365,137.683899 
	C156.571854,137.255630 156.311172,137.087906 156.001175,136.767609 
	C156.004791,136.532791 156.010315,136.063187 156.356308,136.014893 
	C158.727310,134.441711 158.263382,133.506821 155.751663,132.997375 
	C155.504547,132.995987 155.010330,132.999496 154.987671,132.580322 
	C155.046432,130.424347 155.127853,128.687546 155.172272,127.740128 
	C132.408920,127.740128 110.210037,127.740128 87.928490,127.740128 
	C87.928490,128.520767 87.850403,129.513214 87.949104,130.487747 
	C88.061462,131.597153 88.331612,132.690567 88.576614,134.028046 
	C110.515640,137.027588 132.247192,137.036087 154.003143,134.447205 
	C154.674988,135.527725 155.338715,136.262711 156.044067,137.385254 
	C156.130737,138.028702 156.175781,138.284622 156.220825,138.540527 
	C155.895538,139.831161 155.570251,141.121796 154.760208,142.700943 
	C153.852997,142.990433 153.430527,142.991409 152.617447,143.049896 
	C151.176590,143.856705 150.126358,144.606003 149.068680,144.922241 
	C149.498215,142.490906 149.935196,140.492645 150.407425,138.333191 
	C132.106400,138.333191 114.439507,138.307236 96.773300,138.404053 
	C95.813919,138.409302 94.860161,139.441223 93.681541,139.994965 
	C93.459297,139.994659 93.014870,139.987534 92.680389,139.975327 
	C91.900162,139.962570 91.454422,139.962006 91.011322,139.724518 
	C91.013977,139.487595 91.012077,139.013702 91.135399,138.701553 
	C91.054710,137.630356 90.850693,136.871307 90.646675,136.112259 
	C90.107361,137.074173 89.568047,138.036087 88.762703,139.005920 
	C88.319244,139.013748 88.141815,139.013657 87.964386,139.013580 
	C86.293167,137.894180 83.435249,136.997177 83.175903,135.613205 
	C82.433319,131.650589 82.462982,127.462929 82.857025,123.429008 
	C82.946022,122.517944 85.746140,121.871712 87.792931,121.407318 
	C88.706238,122.250526 89.124878,122.789993 89.693176,123.522293 
	C90.285202,122.361023 90.658966,121.627876 91.032730,120.894722 
	C93.434479,120.603111 95.836220,120.311501 98.866943,120.328484 
	C102.642532,120.252754 105.789139,119.868431 108.935753,119.484100 
	C109.695778,119.351616 110.455795,119.219131 111.537781,119.455322 
	C111.252876,120.472107 110.646011,121.120209 110.039139,121.768318 
	C110.346519,122.042809 110.653900,122.317291 110.961288,122.591782 
	C111.982651,121.412079 113.004013,120.232384 114.025375,119.052681 
	C114.025375,119.052681 114.048424,118.995995 114.438629,118.982597 
	C116.143623,117.728165 117.458405,116.487129 118.773193,115.246094 
	C116.767433,115.018944 114.761665,114.791786 112.755905,114.564636 
	C111.010544,112.353096 109.265190,110.141556 107.757736,107.596115 
	C109.134560,107.603897 110.273499,107.945587 111.609718,108.346466 
	C109.964813,104.278214 108.500862,100.657494 107.339630,97.180908 
	C109.853424,98.746231 113.013275,99.276299 112.230019,103.291061 
	C112.101669,103.948944 114.641754,105.127419 116.019966,106.201233 
	C116.190590,106.378792 116.289795,106.420387 116.389000,106.461990 
	C116.277161,106.293846 116.165321,106.125702 115.996872,105.584503 
	C115.214554,102.533066 114.488838,99.854675 113.690918,96.909813 
	C115.385353,97.351692 116.660683,97.684280 117.961647,98.341721 
	C118.135590,99.083244 118.270340,99.505943 118.449585,99.908844 
	C118.471672,99.958511 118.862015,99.904724 118.862175,99.895271 
	C118.904793,97.301865 118.927994,94.708145 118.972061,91.764465 
	C118.996964,90.947166 119.001465,90.479828 119.006516,89.544724 
	C119.007050,84.456871 119.007050,79.836800 119.007050,75.532097 
	C117.543060,75.302887 116.264107,75.102646 114.849174,74.684135 
	C114.410538,74.319038 114.107872,74.172218 113.534927,73.892509 
	C113.168068,73.583580 113.071465,73.407539 113.430878,73.157707 
	C114.608032,70.673531 115.329170,68.263145 116.429901,65.926277 
	C116.989647,64.835098 117.519531,63.592190 117.280098,62.521294 
	C116.709724,59.970215 115.775879,57.500401 115.298820,54.994537 
	C116.021973,55.001011 116.435150,55.010708 117.048660,55.354286 
	C120.612350,55.988968 123.975716,56.289772 127.764313,56.708691 
	C128.479263,56.878170 128.768967,56.929531 129.048218,57.359306 
	C130.353882,59.790714 131.669998,61.843704 132.708023,64.100990 
	C131.698334,64.605347 130.966736,64.905411 130.154449,64.931931 
	C129.806061,64.341621 129.538330,64.024864 129.270615,63.708107 
	C129.081787,63.918133 128.892975,64.128159 128.704147,64.338188 
	C129.188065,64.655228 129.671997,64.972267 130.275513,65.662247 
	C129.796463,67.702171 129.197800,69.369148 128.590317,71.060684 
	C133.869400,73.146034 137.548950,70.825279 138.836075,64.450348 
	C137.565872,64.203995 136.295731,63.957359 135.079712,63.393597 
	C134.622818,61.732971 139.207443,60.220905 135.114990,58.764652 
	C135.166916,58.367012 135.102859,58.204430 135.007721,58.033562 
	C134.976639,58.025269 135.011292,58.078331 135.011292,58.078331 
	C136.657288,57.620190 138.303268,57.162052 140.126511,57.433662 
	C140.176102,59.087803 140.048447,60.012196 139.786194,61.011787 
	C139.784943,61.079395 139.918320,61.071796 140.333679,60.788460 
	C140.721298,59.468067 140.826920,58.423412 140.932541,57.378754 
	C142.075058,56.626366 143.217590,55.873981 144.826324,55.421913 
	C145.681931,56.587318 146.071335,57.452415 146.609985,58.649048 
	C147.193344,57.505810 147.634857,56.640575 148.076370,55.775341 
	C149.475693,55.511101 150.875000,55.246857 152.697906,55.420670 
	C154.413712,56.240543 155.705933,56.622364 157.208588,57.139690 
	C157.602173,57.551384 157.785339,57.827576 157.571930,58.015503 
	C150.208282,59.668777 141.644577,59.312237 141.541702,70.189873 
	C142.512039,70.064171 143.584335,69.925255 144.941391,69.973083 
	C145.326035,70.899361 145.765411,72.083054 145.471664,72.307564 
	C143.287094,73.977264 140.957077,75.456673 137.146484,78.024109 
	C142.760590,78.206459 142.590561,80.359352 140.666428,83.269196 
	C141.115982,83.399269 141.565521,83.529343 142.015076,83.659409 
	C143.680832,82.083138 145.346573,80.506866 147.012329,78.930588 
M124.656235,81.033623 
	C127.292389,82.389748 129.788742,82.943855 132.065399,79.753197 
	C129.336288,78.991142 126.974495,78.331650 124.005478,77.502602 
	C124.005478,78.721893 124.005478,79.862679 123.452896,81.386436 
	C123.298462,82.254211 123.144028,83.121986 122.200279,84.175720 
	C121.707542,88.874023 121.214813,93.572327 120.722084,98.270638 
	C121.288605,98.308250 121.855125,98.345863 122.421646,98.383484 
	C122.911591,95.603966 123.401543,92.824440 124.079018,90.858665 
	C125.781990,91.827873 127.484970,92.797081 129.493469,93.940163 
	C130.507935,91.165581 131.132080,89.458557 131.780853,87.684189 
	C130.565338,87.354858 129.793945,87.145859 129.293472,86.375839 
	C129.783661,85.542732 130.273865,84.709618 130.764053,83.876511 
	C130.332123,83.542091 129.900177,83.207680 129.468231,82.873260 
	C128.003006,84.631340 126.537766,86.389420 124.946861,88.609352 
	C124.779480,88.917465 124.520950,89.084625 123.557022,88.632942 
	C123.374557,87.090744 123.192101,85.548538 123.547913,83.604301 
	C123.696533,82.734146 123.845154,81.863983 124.656235,81.033623 
M125.754448,65.592491 
	C126.080925,64.978783 126.407402,64.365082 126.883247,63.470612 
	C120.588379,64.655792 119.437935,67.315811 122.187973,73.527512 
	C123.199715,70.952728 124.174263,68.472610 125.754448,65.592491 
M146.844833,87.925758 
	C147.040802,87.061783 147.236755,86.197807 147.432724,85.333824 
	C147.110703,85.119781 146.788681,84.905739 146.466660,84.691696 
	C144.993866,86.039009 143.521072,87.386322 142.048294,88.733635 
	C142.222122,88.930893 142.395966,89.128159 142.569794,89.325417 
	C143.860321,89.001976 145.150833,88.678528 146.844833,87.925758 
M136.670227,82.942467 
	C135.840012,82.269791 135.009796,81.597115 134.179581,80.924438 
	C133.848495,81.104927 133.517410,81.285416 133.186325,81.465904 
	C133.634903,82.953201 134.083481,84.440491 134.712540,86.526230 
	C136.268280,85.099350 137.179611,84.263504 138.090942,83.427666 
	C137.807114,83.288147 137.523270,83.148621 136.670227,82.942467 
M152.267975,139.062073 
	C152.616501,139.036240 152.965027,139.010406 153.313553,138.984558 
	C153.240707,138.738815 153.167862,138.493088 153.095016,138.247345 
	C152.839630,138.369431 152.584244,138.491516 152.267975,139.062073 
M141.751602,91.830406 
	C141.585800,91.886330 141.419998,91.942253 141.254196,91.998177 
	C141.420883,92.052490 141.587570,92.106804 141.751602,91.830406 
M117.471481,72.424553 
	C117.528229,72.171494 117.584976,71.918434 117.641708,71.665375 
	C117.506897,71.824348 117.372078,71.983322 117.471481,72.424553 
M127.414253,67.528000 
	C127.177887,67.469536 126.941521,67.411064 126.705154,67.352600 
	C126.857109,67.498634 127.009064,67.644669 127.414253,67.528000 
z"/>
<path fill="#278806" opacity="1.000000" stroke="none" 
	d="
M265.822540,114.177353 
	C267.750183,114.261803 269.199554,114.346230 271.037140,114.453278 
	C271.037140,129.015701 271.037140,143.267105 271.037140,157.973694 
	C280.021973,157.973694 288.597931,157.973694 297.352600,157.973694 
	C297.352600,163.191986 297.352600,167.944595 297.352600,172.911407 
	C281.669983,172.911407 266.246338,172.911407 250.542542,172.911407 
	C250.542542,153.450165 250.542542,134.197205 250.542542,114.177338 
	C255.509811,114.177338 260.427032,114.177338 265.822540,114.177353 
z"/>
<path fill="#389119" opacity="1.000000" stroke="none" 
	d="
M117.936005,98.016861 
	C116.660683,97.684280 115.385353,97.351692 113.690918,96.909813 
	C114.488838,99.854675 115.214554,102.533066 115.968933,105.609772 
	C115.997597,106.008087 115.948547,106.065277 115.948547,106.065277 
	C114.641754,105.127419 112.101669,103.948944 112.230019,103.291061 
	C113.013275,99.276299 109.853424,98.746231 107.321487,97.159904 
	C107.000618,96.994766 106.967369,96.950333 106.974411,96.588776 
	C107.129189,95.328087 107.276939,94.428947 107.185623,94.984642 
	C109.762009,94.551170 111.378296,94.279236 113.055710,94.142853 
	C113.202164,94.327522 113.287483,94.376648 113.372803,94.425781 
	C113.250664,94.282204 113.128525,94.138626 113.004913,93.602844 
	C112.941666,91.820808 112.879890,90.430984 112.774155,88.051926 
	C112.070969,90.217827 111.685051,91.406502 111.299133,92.595169 
	C111.124191,87.746132 107.412788,87.777313 104.046494,86.822403 
	C96.851112,83.039948 94.994453,82.756683 90.550964,85.121681 
	C92.866936,85.865753 94.766235,86.261513 96.449013,87.094643 
	C97.508141,87.619003 98.242874,88.798592 99.005257,90.011597 
	C97.868103,93.303406 98.966927,97.231712 94.644913,98.899933 
	C90.832970,98.524071 87.386200,98.107658 83.335442,97.618279 
	C84.118721,99.473045 84.605606,100.625977 84.872070,102.086868 
	C82.773155,102.025993 80.894669,101.657158 79.450294,101.272583 
	C80.431244,100.106789 80.978081,98.956741 81.690681,97.458061 
	C77.562134,97.458061 74.243019,97.458061 69.606903,97.458061 
	C71.907341,98.624565 73.004288,99.180801 74.080811,100.185699 
	C73.472908,101.919365 72.885445,103.204361 72.297974,104.489349 
	C71.704414,104.286087 71.110855,104.082817 70.885391,103.500740 
	C71.602371,102.855255 71.951271,102.588585 72.300163,102.321907 
	C72.096565,102.111610 71.892967,101.901321 71.689369,101.691025 
	C71.310745,102.167984 70.932121,102.644936 70.553497,103.121887 
	C69.798004,103.301460 69.042511,103.481033 68.217949,103.195808 
	C69.173210,100.280640 69.173210,100.280640 65.394638,99.707436 
	C65.941811,100.835724 66.471710,101.928383 67.001602,103.021042 
	C62.892017,101.767075 58.782433,100.513107 54.474327,98.856750 
	C54.556660,98.267830 54.837517,98.081299 55.489002,97.941788 
	C58.026726,98.514320 60.193825,99.039833 62.736996,99.656548 
	C61.768314,98.459442 61.078758,97.607285 59.698898,95.902039 
	C66.388367,95.902039 72.036087,95.902039 77.683815,95.902039 
	C77.678604,95.637245 77.673401,95.372452 77.668190,95.107658 
	C72.450195,94.831635 67.232208,94.555618 62.009815,93.988510 
	C62.006386,93.503342 62.007359,93.309265 62.008335,93.115189 
	C73.771233,93.115189 85.534126,93.115189 97.731293,93.115189 
	C94.937012,91.924637 92.448296,90.864281 90.347443,89.412216 
	C91.839035,88.926300 92.942749,88.832092 94.046471,88.737885 
	C94.010071,88.322777 93.973671,87.907669 93.937271,87.492561 
	C91.623337,87.666313 89.309410,87.840073 86.995483,88.013840 
	C86.230286,87.947685 85.465096,87.881531 84.215149,87.598083 
	C83.092026,87.627518 82.453651,87.874252 81.815269,88.120987 
	C81.381096,88.134140 80.946930,88.147301 80.576950,87.824661 
	C79.671471,84.832466 77.497314,84.944817 75.065964,87.776962 
	C66.968994,85.894249 58.872021,84.011536 50.511230,81.760849 
	C50.504238,80.907051 50.761074,80.421227 51.444496,79.947784 
	C53.574566,80.061981 55.278042,80.163803 57.051735,80.567192 
	C57.806004,81.213524 58.490059,81.558281 59.532578,81.902771 
	C60.954098,81.852608 62.017159,81.802704 63.089622,81.752357 
	C59.709740,76.927116 55.423145,77.038048 50.608063,78.971115 
	C50.447132,78.969101 50.125244,78.968330 49.812508,78.968117 
	C49.291286,78.968102 49.082798,78.968300 48.694412,78.981873 
	C48.514519,78.995232 48.156311,79.038231 48.156311,79.038231 
	C49.720402,78.113411 51.223587,76.550407 52.861027,76.394135 
	C56.479897,76.048759 60.185684,76.197739 63.821312,76.527565 
	C72.514694,77.316216 81.188011,78.326042 90.774040,78.203156 
	C89.654465,76.674004 88.558937,75.126541 87.410851,73.619110 
	C83.801521,68.880058 79.816841,64.373436 76.726807,59.318748 
	C75.498451,57.309395 76.234993,54.098866 76.524132,51.823788 
	C77.498108,52.774403 78.024940,53.336414 78.551765,53.898426 
	C78.735840,53.720982 78.919914,53.543541 79.103989,53.366100 
	C78.384064,52.735077 77.664146,52.104057 76.944221,51.473038 
	C79.079910,51.198021 81.337105,50.359119 83.321411,50.786678 
	C85.970619,51.357491 88.407944,52.911713 90.917938,54.688385 
	C89.671371,55.345070 88.443130,55.356941 87.019653,55.064178 
	C85.403442,53.978714 83.982491,53.197880 81.454094,51.808498 
	C82.653038,54.255749 83.251343,55.476990 83.541916,56.645336 
	C83.073891,56.556316 82.906952,56.475552 82.755394,56.498123 
	C82.633102,56.516342 82.421852,56.718864 82.432678,56.738377 
	C83.828148,59.255333 85.133873,61.830978 86.679688,64.253342 
	C88.517723,67.133636 90.428963,66.791824 92.278084,64.073593 
	C91.988205,63.578186 91.836472,63.071491 91.498672,62.781616 
	C89.261726,60.862041 86.984840,58.988998 85.181290,57.059067 
	C86.255203,56.952450 86.868790,56.887573 87.778267,56.944115 
	C91.294945,59.666885 94.515724,62.268242 97.744247,65.149277 
	C97.591385,65.523834 97.430786,65.618706 96.958313,65.808502 
	C96.271408,66.345551 95.896370,66.787651 95.521324,67.229752 
	C95.758331,67.393410 95.995331,67.557068 96.232330,67.720718 
	C96.607132,67.080345 96.981941,66.439972 97.637543,65.613922 
	C98.615417,65.945168 99.312492,66.462097 99.879707,67.286438 
	C99.322784,69.091507 98.895706,70.589180 98.468636,72.086853 
	C98.938385,72.209763 99.408127,72.332672 99.877876,72.455589 
	C100.283821,70.870728 100.689766,69.285873 101.414841,67.880402 
	C104.477997,70.842216 111.421608,69.880196 110.072296,77.505692 
	C111.316597,76.345596 112.560898,75.185501 113.805206,74.025406 
	C114.107872,74.172218 114.410538,74.319038 114.868073,75.031082 
	C116.812912,77.570358 117.455185,79.414261 116.727753,82.419144 
	C116.190979,84.636475 118.155762,87.459396 119.005974,90.012497 
	C119.001465,90.479828 118.996964,90.947166 118.680634,91.998627 
	C118.224541,94.394119 118.080276,96.205490 117.936005,98.016861 
M66.796326,82.389046 
	C66.792175,82.784203 66.788017,83.179352 66.783859,83.574509 
	C66.947876,83.576042 67.254448,83.588562 67.255295,83.577538 
	C67.285591,83.184196 67.287285,82.788666 66.796326,82.389046 
M88.732773,68.939926 
	C88.388733,68.964912 88.044685,68.989906 87.700645,69.014893 
	C87.772552,69.256096 87.844460,69.497307 87.916374,69.738510 
	C88.167610,69.618820 88.418839,69.499123 88.732773,68.939926 
M67.048088,79.112335 
	C66.940674,79.225288 66.746338,79.341026 66.749847,79.450424 
	C66.753487,79.563843 66.965828,79.777534 67.057358,79.762886 
	C67.481331,79.695023 67.895042,79.563011 68.312424,79.453979 
	C68.047890,79.314079 67.783348,79.174171 67.048088,79.112335 
M102.371857,73.524788 
	C102.159500,73.470619 101.947151,73.416451 101.734795,73.362282 
	C101.870956,73.494972 102.007126,73.627663 102.371857,73.524788 
M88.526169,95.628143 
	C88.471809,95.840385 88.417450,96.052628 88.363091,96.264870 
	C88.496704,96.128578 88.630318,95.992287 88.526169,95.628143 
z"/>
<path fill="#3D9420" opacity="1.000000" stroke="none" 
	d="
M132.986115,63.896698 
	C131.669998,61.843704 130.353882,59.790714 129.380615,57.329670 
	C131.083893,56.074333 132.444336,55.227051 133.667816,54.465065 
	C132.386154,53.585773 131.574158,53.028694 130.808609,52.229736 
	C131.169571,51.627171 131.484085,51.266479 132.141785,51.048317 
	C133.567978,51.117237 134.650986,51.043625 135.734009,50.970016 
	C134.767181,50.298355 133.800354,49.626690 132.903961,48.608673 
	C134.556610,45.627506 136.138840,42.992699 137.790665,40.771561 
	C137.506241,42.983540 137.152206,44.781853 136.798172,46.580166 
	C137.187775,46.795212 137.577393,47.010258 137.967010,47.225307 
	C139.977524,43.465649 141.988022,39.705994 144.018997,35.908054 
	C142.119415,36.257442 140.979156,36.467171 139.903275,36.330978 
	C140.373154,34.650726 140.778656,33.316395 141.411438,31.865181 
	C142.085037,31.506262 142.531342,31.264221 142.990295,31.363182 
	C143.330994,32.311821 143.659088,32.919460 143.987167,33.527100 
	C144.268723,33.228504 144.550278,32.929909 144.831833,32.631310 
	C144.228516,32.080673 143.625198,31.530039 142.974762,30.623920 
	C140.687698,26.083693 140.687698,26.083693 137.853577,29.394484 
	C138.857666,30.015617 139.882095,30.649345 140.444427,31.244532 
	C138.462036,31.351011 136.941742,31.496033 135.577881,31.332664 
	C135.534485,30.552299 135.334671,30.080324 135.134857,29.608351 
	C134.982681,29.680645 134.830490,29.752939 134.678314,29.825233 
	C134.873947,30.437223 135.069565,31.049215 135.181305,32.017742 
	C134.033524,32.898571 132.969620,33.422871 131.922974,33.539165 
	C131.540268,32.244492 131.140320,31.357821 130.740356,30.471151 
	C130.157867,31.318804 129.575394,32.166454 128.639832,33.003174 
	C124.888649,36.499557 121.555840,40.074032 118.055580,43.476234 
	C116.896088,44.603245 115.305580,45.286816 113.912132,46.173126 
	C118.764145,37.449379 124.824287,30.022596 134.796036,26.839922 
	C136.050919,26.439407 137.348389,26.099466 138.651779,25.936077 
	C145.785217,25.041849 149.038528,28.803852 146.151199,35.358231 
	C143.293137,41.846188 139.544830,47.942329 136.178360,54.205677 
	C135.561539,55.353287 134.903183,56.478584 134.637650,57.846256 
	C135.011292,58.078331 134.976639,58.025269 134.805969,57.710026 
	C134.250259,57.727913 133.865219,58.061039 133.480179,58.394173 
	C133.986450,58.596016 134.492737,58.797863 134.999008,58.999710 
	C139.207443,60.220905 134.622818,61.732971 134.739899,63.437859 
	C133.892654,63.831730 133.439392,63.864212 132.986115,63.896698 
z"/>
<path fill="#3D9420" opacity="1.000000" stroke="none" 
	d="
M152.002136,81.018738 
	C151.994461,80.519958 151.986786,80.021187 151.959167,79.148781 
	C152.282532,78.470474 152.607025,77.924835 152.971878,77.896355 
	C162.152618,77.179817 171.333801,76.450089 180.526688,75.931671 
	C181.672821,75.867035 182.884918,76.972290 184.066452,77.535461 
	C183.175919,78.560402 182.486038,80.075623 181.363998,80.534813 
	C169.522125,85.381035 157.611343,90.058853 145.046463,94.906075 
	C143.936630,95.073624 143.499924,95.118233 143.063202,95.162842 
	C144.166016,93.885681 145.295837,92.630554 146.362167,91.323624 
	C147.075623,90.449196 147.698853,89.501183 148.852036,88.399033 
	C150.894669,87.801468 152.447723,87.390984 153.963867,87.295502 
	C153.581863,88.320938 153.236786,89.031364 152.428070,90.696220 
	C154.367706,89.785973 155.552139,89.230133 156.736572,88.674286 
	C156.173935,87.959976 155.611298,87.245674 155.343613,86.321548 
	C157.721893,85.188316 159.805222,84.264923 161.962234,83.058411 
	C162.349182,82.283638 162.662430,81.791977 163.023010,81.185143 
	C163.070343,81.069977 163.089706,80.821693 163.482956,80.826324 
	C164.913986,80.962532 165.951782,81.094101 166.996628,81.442429 
	C167.003693,81.659172 167.036514,82.092110 167.125153,82.357346 
	C167.458130,82.400978 167.702469,82.179382 168.343353,82.003510 
	C168.710373,81.073685 168.792816,79.272896 168.633896,79.251328 
	C167.177933,79.053818 165.680084,79.165192 163.749008,79.103867 
	C160.200241,79.688889 157.096909,80.356529 153.826508,81.268677 
	C153.101151,81.658989 152.542877,81.804802 151.988892,81.717651 
	C151.993179,81.484680 152.002136,81.018738 152.002136,81.018738 
M159.162735,87.948662 
	C159.413162,87.798027 159.797485,87.694771 159.872742,87.482147 
	C159.935730,87.304138 159.637589,86.998329 159.499359,86.749115 
	C159.360657,86.998611 159.221970,87.248108 159.162735,87.948662 
M163.472748,86.375511 
	C163.527557,86.160301 163.582367,85.945099 163.637177,85.729889 
	C163.502365,85.868004 163.367569,86.006126 163.472748,86.375511 
M164.482269,83.590881 
	C164.482269,83.590881 164.415131,83.478310 164.482269,83.590881 
z"/>
<path fill="#439726" opacity="1.000000" stroke="none" 
	d="
M157.968506,58.103767 
	C157.785339,57.827576 157.602173,57.551384 157.209656,56.852955 
	C156.999741,55.859657 156.999146,55.288601 156.998566,54.717545 
	C157.802979,54.616711 158.607391,54.515881 160.038910,54.666039 
	C161.670776,55.047638 162.675507,55.178253 163.493393,55.284576 
	C162.979874,53.861404 162.535904,52.630989 162.091949,51.400566 
	C164.373398,51.512024 166.654861,51.623482 169.797882,51.777027 
	C165.384827,60.626270 159.451492,66.291847 152.395050,71.006317 
	C149.965714,72.629372 147.767395,74.615410 145.595673,76.581596 
	C145.366745,76.788872 146.033173,77.985107 146.648270,78.826553 
	C145.346573,80.506866 143.680832,82.083138 142.015076,83.659409 
	C141.565521,83.529343 141.115982,83.399269 140.666428,83.269196 
	C142.590561,80.359352 142.760590,78.206459 137.146484,78.024109 
	C140.957077,75.456673 143.287094,73.977264 145.471664,72.307564 
	C145.765411,72.083054 145.326035,70.899361 145.135483,69.720070 
	C146.493988,68.470650 147.943130,67.660988 149.841095,66.885315 
	C151.121140,66.042717 151.952362,65.166115 152.960663,64.038589 
	C154.748001,61.893032 156.358261,59.998398 157.968506,58.103767 
z"/>
<path fill="#389119" opacity="1.000000" stroke="none" 
	d="
M147.063751,170.333557 
	C146.180359,174.965775 142.328522,176.034851 138.655579,176.833221 
	C135.129364,177.599716 131.447815,177.651627 127.100670,177.678772 
	C123.259239,177.513031 120.151665,177.686081 117.044090,177.859131 
	C110.402046,177.969971 103.776703,178.015305 98.761223,172.697708 
	C99.425209,172.168671 99.742348,172.050034 100.447510,171.874344 
	C101.344162,171.260559 101.852806,170.703812 102.694283,170.341934 
	C115.630676,174.854889 128.304337,173.887360 141.292511,171.313965 
	C141.776672,171.768158 141.971268,171.948853 142.236481,172.294434 
	C142.543030,172.301758 142.778976,172.144150 143.007034,171.993637 
	C142.999146,172.000732 142.983124,172.014786 143.251892,171.974182 
	C143.673950,171.629898 143.827240,171.326218 143.990082,171.011505 
	C143.999649,171.000473 144.019333,170.978928 144.302872,170.976334 
	C145.030426,170.628830 145.474442,170.283920 146.192963,170.071991 
	C146.666214,170.247818 146.864975,170.290680 147.063751,170.333557 
z"/>
<path fill="#389119" opacity="1.000000" stroke="none" 
	d="
M116.050308,65.852753 
	C115.329170,68.263145 114.608032,70.673531 113.151276,72.993149 
	C111.280327,69.324669 110.145004,65.746964 108.641304,61.008408 
	C107.370674,63.779659 106.662773,65.323601 106.004646,66.758972 
	C103.584099,65.770317 101.344482,64.855560 98.936302,63.647408 
	C96.923805,61.186550 95.079872,59.019089 93.235939,56.851624 
	C93.969650,56.984692 94.703369,57.117764 95.841278,57.670364 
	C98.898682,60.083191 100.476837,64.112038 106.044296,62.543884 
	C102.329460,59.679218 99.206032,57.270607 96.082603,54.862000 
	C96.776024,54.176529 97.689934,52.781094 98.128189,52.917202 
	C101.844696,54.071434 105.474525,55.504719 109.214035,56.885178 
	C110.381439,54.218998 111.806541,50.964264 113.677048,48.206085 
	C112.390533,54.181839 110.507286,59.667667 115.783730,64.429459 
	C116.068672,64.686607 115.970261,65.368553 116.050308,65.852753 
M105.186775,58.258583 
	C105.028175,58.373825 104.869568,58.489063 104.710968,58.604301 
	C104.931656,58.580875 105.152336,58.557449 105.186775,58.258583 
z"/>
<path fill="#389119" opacity="1.000000" stroke="none" 
	d="
M93.014862,139.987534 
	C93.014870,139.987534 93.459297,139.994659 93.839935,140.344086 
	C94.711342,143.757599 95.202110,146.821686 95.393005,149.657898 
	C94.430496,149.334778 93.767860,149.239502 93.105225,149.144226 
	C93.083977,149.469940 93.062729,149.795670 93.041481,150.121384 
	C93.931610,150.121384 94.821739,150.121384 96.122208,150.166458 
	C98.273819,156.275543 100.015091,162.339554 101.425674,168.230835 
	C100.146790,167.351761 99.198578,166.645447 97.494682,165.376221 
	C98.604393,168.212448 99.331940,170.071930 100.059486,171.931396 
	C99.742348,172.050034 99.425209,172.168671 98.595627,172.305740 
	C95.406311,163.933472 92.729431,155.542786 90.294243,146.688782 
	C90.690231,146.150711 90.844528,146.075958 91.312180,146.045624 
	C92.316696,146.445938 93.007843,146.801834 94.173958,147.402328 
	C93.747627,144.675079 93.381248,142.331299 93.014862,139.987534 
M95.612747,156.529373 
	C95.880783,156.817947 96.148819,157.106537 96.416855,157.395111 
	C96.517715,157.291748 96.715431,157.109070 96.705238,157.096619 
	C96.468491,156.807480 96.209183,156.536804 95.612747,156.529373 
z"/>
<path fill="#D7E9D1" opacity="1.000000" stroke="none" 
	d="
M116.429901,65.926277 
	C115.970261,65.368553 116.068672,64.686607 115.783730,64.429459 
	C110.507286,59.667667 112.390533,54.181839 114.046631,48.301285 
	C113.970818,47.899929 113.994995,47.975517 114.285034,47.974167 
	C114.356316,47.519405 114.137558,47.065998 113.918808,46.612591 
	C113.918808,46.612591 113.808563,46.394409 113.860352,46.283768 
	C115.305580,45.286816 116.896088,44.603245 118.055580,43.476234 
	C121.555840,40.074032 124.888649,36.499557 128.642822,32.995903 
	C128.998901,32.999557 128.985992,33.006611 128.970825,33.363220 
	C128.790833,34.164772 128.625992,34.609707 128.511032,35.295540 
	C128.057449,35.841301 127.553986,36.146164 126.695145,36.702938 
	C126.583054,37.467396 126.826347,37.979946 127.113297,38.764000 
	C126.612144,39.381649 126.067337,39.727798 125.268906,39.701538 
	C120.023026,43.496094 116.395538,48.536377 114.988846,54.997761 
	C115.775879,57.500401 116.709724,59.970215 117.280098,62.521294 
	C117.519531,63.592190 116.989647,64.835098 116.429901,65.926277 
z"/>
<path fill="#439726" opacity="1.000000" stroke="none" 
	d="
M149.076126,145.355286 
	C150.126358,144.606003 151.176590,143.856705 152.651443,143.390579 
	C153.497314,144.167068 153.918579,144.660385 154.339828,145.153702 
	C152.711670,151.239670 151.083496,157.325623 148.957718,163.687195 
	C148.264206,163.950439 148.068314,163.938049 147.901794,163.556061 
	C147.639999,161.481277 147.348862,159.776108 146.940430,157.834991 
	C146.542252,157.398178 146.261383,157.197296 145.972885,156.593842 
	C147.002228,152.579269 148.039169,148.967270 149.076126,145.355286 
z"/>
<path fill="#389119" opacity="1.000000" stroke="none" 
	d="
M107.018761,97.015762 
	C108.500862,100.657494 109.964813,104.278214 111.609718,108.346466 
	C110.273499,107.945587 109.134560,107.603897 107.647491,107.254120 
	C105.762871,107.454865 104.226379,107.663689 102.339828,107.644150 
	C101.989769,107.415779 101.974045,106.984795 101.950157,106.703606 
	C101.946556,105.322243 101.966850,104.222061 102.318375,103.019531 
	C103.325562,102.655113 104.001511,102.393059 104.677460,102.131012 
	C104.114899,101.334625 103.552338,100.538254 102.984070,99.397995 
	C102.261040,97.339424 101.543732,95.624733 100.826416,93.910049 
	C101.065155,93.562592 101.303894,93.215141 101.542633,92.867691 
	C103.350876,94.228569 105.159126,95.589455 106.967369,96.950333 
	C106.967369,96.950333 107.000618,96.994766 107.018761,97.015762 
z"/>
<path fill="#439726" opacity="1.000000" stroke="none" 
	d="
M155.593079,121.015549 
	C155.468048,122.241837 154.985428,123.283928 154.990082,123.273872 
	C144.188522,123.273872 133.863083,123.273872 123.537643,123.273872 
	C123.536537,122.777657 123.535431,122.281433 123.534317,121.785217 
	C127.460777,121.370552 131.387238,120.955879 135.924225,120.287270 
	C142.768326,120.299332 149.001892,120.565338 155.593079,121.015549 
z"/>
<path fill="#439726" opacity="1.000000" stroke="none" 
	d="
M79.016174,101.288322 
	C80.894669,101.657158 82.773155,102.025993 85.071442,102.118561 
	C85.771141,101.894402 85.993607,102.036484 86.244751,102.656143 
	C87.554123,103.362724 88.777367,103.681664 90.000305,104.000305 
	C90.000000,104.000000 89.999390,103.999146 89.936852,104.362450 
	C87.198578,108.458878 83.967636,106.739815 80.744171,105.749588 
	C80.233360,105.592674 79.488571,106.197395 78.851967,106.449982 
	C76.864578,105.948303 74.877197,105.446625 72.593887,104.717148 
	C72.885445,103.204361 73.472908,101.919365 74.446625,100.238922 
	C76.227310,100.325096 77.621742,100.806709 79.016174,101.288322 
z"/>
<path fill="#3D9420" opacity="1.000000" stroke="none" 
	d="
M79.136719,106.653687 
	C79.488571,106.197395 80.233360,105.592674 80.744171,105.749588 
	C83.967636,106.739815 87.198578,108.458878 90.267212,104.531723 
	C94.431427,105.220055 98.202736,106.102425 101.974045,106.984795 
	C101.974045,106.984795 101.989769,107.415779 101.996933,107.631302 
	C94.362488,110.120750 86.849106,109.467667 79.136719,106.653687 
z"/>
<path fill="#CFE5C8" opacity="1.000000" stroke="none" 
	d="
M142.850555,95.350235 
	C143.499924,95.118233 143.936630,95.073624 144.702423,95.058083 
	C145.017700,95.501541 145.003922,95.915939 144.829651,96.829498 
	C144.669159,97.328667 144.364517,97.721962 144.364517,97.721962 
	C144.101151,97.673866 143.899323,97.763954 143.704987,98.193481 
	C143.650955,98.394737 143.592255,98.361237 143.592255,98.361237 
	C143.018417,98.408783 142.444595,98.456329 141.681091,98.996170 
	C141.491409,99.488472 141.367996,99.642220 140.869141,99.472687 
	C140.043961,99.842224 139.717651,100.381294 139.169388,100.610207 
	C137.731049,101.012314 136.514664,101.724571 135.312332,102.456802 
	C135.326401,102.476791 135.295395,102.511276 135.039978,102.582672 
	C134.180786,103.062935 133.577042,103.471802 132.973282,103.880669 
	C132.620178,103.861008 132.329926,103.715752 132.162903,102.941101 
	C135.150131,100.277130 138.076981,98.116974 141.003830,95.956818 
	C141.548523,95.817093 142.093231,95.677361 142.850555,95.350235 
z"/>
<path fill="#CFE5C8" opacity="1.000000" stroke="none" 
	d="
M93.187256,56.854694 
	C95.079872,59.019089 96.923805,61.186550 98.735901,63.714252 
	C98.381546,64.339531 98.059029,64.604568 97.736511,64.869598 
	C94.515724,62.268242 91.294945,59.666885 87.727859,56.702625 
	C87.368591,56.008778 87.313042,55.685139 87.214897,55.368813 
	C88.443130,55.356941 89.671371,55.345070 91.250381,54.996925 
	C91.601158,54.660652 91.605560,54.851608 91.275650,55.289719 
	C91.659645,56.132168 92.373550,56.536507 93.087456,56.940845 
	C93.087456,56.940845 93.138580,56.857761 93.187256,56.854694 
z"/>
<path fill="#439726" opacity="1.000000" stroke="none" 
	d="
M162.612915,95.996986 
	C160.951935,97.106750 159.019440,98.428505 156.915024,98.815651 
	C155.899261,99.002518 154.560043,97.431000 153.217804,96.443756 
	C156.135788,96.096107 159.203232,95.960388 162.612915,95.996986 
z"/>
<path fill="#D7E9D1" opacity="1.000000" stroke="none" 
	d="
M96.041870,55.308479 
	C99.206032,57.270607 102.329460,59.679218 106.044296,62.543884 
	C100.476837,64.112038 98.898682,60.083191 96.080322,57.817947 
	C95.943832,56.948990 95.972481,56.351974 96.041870,55.308479 
z"/>
<path fill="#439726" opacity="1.000000" stroke="none" 
	d="
M61.618233,93.048073 
	C62.007359,93.309265 62.006386,93.503342 61.707546,94.214661 
	C59.645138,94.838821 57.820511,94.724579 56.150200,95.178352 
	C55.600815,95.327606 55.450935,96.947403 55.118374,97.894768 
	C54.837517,98.081299 54.556660,98.267830 54.149323,98.676346 
	C52.496304,98.033485 50.969765,97.168648 49.443230,96.303818 
	C49.565292,95.774956 49.687351,95.246101 49.809414,94.717239 
	C53.615650,94.138481 57.421890,93.559715 61.618233,93.048073 
z"/>
<path fill="#389119" opacity="1.000000" stroke="none" 
	d="
M112.918648,114.891647 
	C114.761665,114.791786 116.767433,115.018944 118.773193,115.246094 
	C117.458405,116.487129 116.143623,117.728165 114.457382,119.006775 
	C113.751083,117.769119 113.416237,116.493889 112.918648,114.891647 
z"/>
<path fill="#389119" opacity="1.000000" stroke="none" 
	d="
M148.015778,167.325287 
	C147.820221,168.154251 147.624649,168.983215 147.246414,170.072876 
	C146.864975,170.290680 146.666214,170.247818 146.190857,169.744568 
	C145.672363,168.944122 145.430466,168.604111 145.188568,168.264084 
	C144.798828,169.169037 144.409088,170.073990 144.019348,170.978928 
	C144.019333,170.978928 143.999649,171.000473 143.744934,171.080353 
	C143.321198,171.445099 143.152161,171.729950 142.983124,172.014786 
	C142.983124,172.014786 142.999146,172.000732 142.793976,172.024673 
	C142.588791,172.048615 142.165878,172.129532 142.165878,172.129532 
	C141.971268,171.948853 141.776672,171.768158 141.467712,171.014221 
	C142.776855,166.895645 144.200409,163.350311 145.772964,160.219727 
	C146.267639,162.736130 146.613327,164.837784 147.210846,167.069733 
	C147.647064,167.241745 147.831421,167.283508 148.015778,167.325287 
z"/>
<path fill="#439726" opacity="1.000000" stroke="none" 
	d="
M117.399368,177.993912 
	C120.151665,177.686081 123.259239,177.513031 126.659782,177.603058 
	C123.886719,177.953659 120.820679,178.041183 117.399368,177.993912 
z"/>
<path fill="#439726" opacity="1.000000" stroke="none" 
	d="
M160.297745,107.936981 
	C159.322662,107.497704 158.672668,107.089836 157.868866,106.585457 
	C158.463028,105.526085 159.103149,104.384796 160.186874,102.452576 
	C161.330841,103.994606 162.157913,105.109482 162.987793,106.587692 
	C162.201340,107.290154 161.412079,107.629272 160.297745,107.936981 
z"/>
<path fill="#3D9420" opacity="1.000000" stroke="none" 
	d="
M51.017910,79.935402 
	C50.761074,80.421227 50.504238,80.907051 50.133209,81.643898 
	C48.522209,81.385048 47.025406,80.875175 44.391666,79.978020 
	C46.262165,79.642288 46.994747,79.510796 47.941822,79.208771 
	C48.156311,79.038231 48.514519,78.995232 48.825848,79.147705 
	C49.466534,79.189568 49.795887,79.078949 50.125244,78.968330 
	C50.125244,78.968330 50.447132,78.969101 50.688961,79.207367 
	C50.930790,79.445625 51.017910,79.935402 51.017910,79.935402 
z"/>
<path fill="#389119" opacity="1.000000" stroke="none" 
	d="
M108.508369,119.392319 
	C105.789139,119.868431 102.642532,120.252754 99.275406,120.397972 
	C102.063599,119.872757 105.072289,119.586647 108.508369,119.392319 
z"/>
<path fill="#3D9420" opacity="1.000000" stroke="none" 
	d="
M75.332382,87.953491 
	C77.497314,84.944817 79.671471,84.832466 80.419403,87.698669 
	C78.664703,87.982323 77.131752,88.056175 75.332382,87.953491 
z"/>
<path fill="#68AB51" opacity="1.000000" stroke="none" 
	d="
M86.968231,88.323837 
	C89.309410,87.840073 91.623337,87.666313 93.937271,87.492561 
	C93.973671,87.907669 94.010071,88.322777 94.046471,88.737885 
	C92.942749,88.832092 91.839035,88.926300 90.357239,89.012665 
	C88.929527,89.183426 87.555206,92.021004 86.968231,88.323837 
z"/>
<path fill="#68AB51" opacity="1.000000" stroke="none" 
	d="
M161.727417,51.375198 
	C162.535904,52.630989 162.979874,53.861404 163.493393,55.284576 
	C162.675507,55.178253 161.670776,55.047638 160.441437,54.748657 
	C160.598846,53.503468 160.980881,52.426647 161.727417,51.375198 
z"/>
<path fill="#3D9420" opacity="1.000000" stroke="none" 
	d="
M156.732468,54.502018 
	C156.999146,55.288601 156.999741,55.859657 156.999237,56.717449 
	C155.705933,56.622364 154.413712,56.240543 153.053741,55.507385 
	C153.173264,55.103645 153.360489,55.051247 154.086945,55.018394 
	C155.017548,54.734352 155.408936,54.430771 155.800323,54.127193 
	C156.022339,54.180294 156.244354,54.233395 156.732468,54.502018 
z"/>
<path fill="#439726" opacity="1.000000" stroke="none" 
	d="
M67.187622,103.174316 
	C66.471710,101.928383 65.941811,100.835724 65.394638,99.707436 
	C69.173210,100.280640 69.173210,100.280640 68.001328,103.007736 
	C67.853775,103.284454 67.373642,103.327599 67.187622,103.174316 
z"/>
<path fill="#439726" opacity="1.000000" stroke="none" 
	d="
M157.982071,129.017990 
	C156.975174,126.930954 155.434830,124.759804 159.252670,123.547211 
	C159.633270,123.720924 159.576904,123.795036 159.594940,123.836884 
	C159.172150,125.373909 158.731339,126.869102 158.144623,128.682816 
	C157.998734,129.001343 157.982071,129.017990 157.982071,129.017990 
z"/>
<path fill="#389119" opacity="1.000000" stroke="none" 
	d="
M113.681198,118.993088 
	C113.004013,120.232384 111.982651,121.412079 110.961288,122.591782 
	C110.653900,122.317291 110.346519,122.042809 110.039139,121.768318 
	C110.646011,121.120209 111.252876,120.472107 111.921707,119.520615 
	C112.434784,119.122658 112.885902,119.028076 113.681198,118.993088 
z"/>
<path fill="#389119" opacity="1.000000" stroke="none" 
	d="
M87.961853,139.369034 
	C88.141815,139.013657 88.319244,139.013748 89.092819,139.010147 
	C90.129997,139.008881 90.571037,139.011292 91.012077,139.013702 
	C91.012077,139.013702 91.013977,139.487595 90.872505,140.050140 
	C90.489166,141.740585 90.247307,142.868484 89.881386,144.097092 
	C89.757332,144.197815 89.505966,144.395157 89.505966,144.395157 
	C88.990417,142.838272 88.474869,141.281372 87.961853,139.369034 
z"/>
<path fill="#3D9420" opacity="1.000000" stroke="none" 
	d="
M147.998688,55.512577 
	C147.634857,56.640575 147.193344,57.505810 146.609985,58.649048 
	C146.071335,57.452415 145.681931,56.587318 145.170715,55.443069 
	C146.006271,55.192551 146.963623,55.221184 147.998688,55.512577 
z"/>
<path fill="#389119" opacity="1.000000" stroke="none" 
	d="
M90.794296,120.784966 
	C90.658966,121.627876 90.285202,122.361023 89.693176,123.522293 
	C89.124878,122.789993 88.706238,122.250526 88.175034,121.456581 
	C88.893600,121.026466 89.724731,120.850838 90.794296,120.784966 
z"/>
<path fill="#68AB51" opacity="1.000000" stroke="none" 
	d="
M81.938469,88.509682 
	C82.453651,87.874252 83.092026,87.627518 83.831604,87.568848 
	C83.309097,88.137398 82.685387,88.517883 81.938469,88.509682 
z"/>
<path fill="#389119" opacity="1.000000" stroke="none" 
	d="
M147.872421,163.925674 
	C148.068314,163.938049 148.264206,163.950439 148.753357,163.988861 
	C148.812363,164.958023 148.578094,165.901138 148.179794,167.084778 
	C147.831421,167.283508 147.647064,167.241745 147.230835,166.743774 
	C147.290115,165.500259 147.581268,164.712967 147.872421,163.925674 
z"/>
<path fill="#68AB51" opacity="1.000000" stroke="none" 
	d="
M155.750671,53.864990 
	C155.408936,54.430771 155.017548,54.734352 154.377151,55.047485 
	C154.652420,54.572292 155.176712,54.087543 155.750671,53.864990 
z"/>
<path fill="#389119" opacity="1.000000" stroke="none" 
	d="
M144.717682,97.808563 
	C144.364517,97.721962 144.669159,97.328667 144.831787,97.140457 
	C145.743759,96.896896 146.493103,96.841545 147.612534,96.853806 
	C148.309845,101.126839 145.792496,96.826157 144.717682,97.808563 
z"/>
<path fill="#389119" opacity="1.000000" stroke="none" 
	d="
M154.509781,144.918365 
	C153.918579,144.660385 153.497314,144.167068 153.042068,143.333069 
	C153.430527,142.991409 153.852997,142.990433 154.592392,142.991409 
	C154.832794,143.556595 154.756256,144.119812 154.509781,144.918365 
z"/>
<path fill="#3D9420" opacity="1.000000" stroke="none" 
	d="
M140.892670,57.393318 
	C140.826920,58.423412 140.721298,59.468067 140.302795,60.754669 
	C139.989914,60.996613 139.920792,60.936584 139.920792,60.936584 
	C140.048447,60.012196 140.176102,59.087803 140.546982,57.756958 
	C140.790207,57.350502 140.852783,57.407887 140.892670,57.393318 
z"/>
<path fill="#389119" opacity="1.000000" stroke="none" 
	d="
M90.283615,146.275208 
	C89.848412,145.852844 89.665520,145.380768 89.494293,144.651917 
	C89.505966,144.395157 89.757332,144.197815 90.130554,144.260040 
	C90.668785,144.881912 90.833801,145.441559 90.998817,146.001221 
	C90.844528,146.075958 90.690231,146.150711 90.283615,146.275208 
z"/>
<path fill="#389119" opacity="1.000000" stroke="none" 
	d="
M93.355598,56.594788 
	C92.373550,56.536507 91.659645,56.132168 91.247299,55.330925 
	C92.240479,55.372261 92.932114,55.810497 93.355598,56.594788 
z"/>
<path fill="#389119" opacity="1.000000" stroke="none" 
	d="
M155.997559,137.002441 
	C156.311172,137.087906 156.571854,137.255630 156.886932,137.715118 
	C156.895462,138.065079 156.796677,138.205521 156.459366,138.443253 
	C156.175781,138.284622 156.130737,138.028702 156.042847,137.386398 
	C156.000000,137.000000 155.997559,137.002441 155.997559,137.002441 
z"/>
<path fill="#389119" opacity="1.000000" stroke="none" 
	d="
M113.692612,46.958443 
	C114.137558,47.065998 114.356316,47.519405 114.246735,47.984543 
	C113.767738,47.765617 113.617073,47.534958 113.692612,46.958443 
z"/>
<path fill="#439726" opacity="1.000000" stroke="none" 
	d="
M126.196533,118.753174 
	C126.008026,118.784744 125.948761,118.602272 126.040527,118.305595 
	C126.096718,118.222252 126.230919,118.570000 126.196533,118.753174 
z"/>
<path fill="#EEF6EC" opacity="1.000000" stroke="none" 
	d="
M218.358734,159.787415 
	C214.633041,159.812042 211.333603,159.812042 207.715973,159.812042 
	C207.715973,156.866302 207.715973,154.289612 207.715973,151.045502 
	C211.013596,151.045502 214.274078,151.020798 217.533997,151.052979 
	C220.365753,151.080917 223.510956,151.655014 223.260895,155.000961 
	C223.134644,156.690292 220.361389,158.181808 218.358734,159.787415 
z"/>
<path fill="#F3F8F1" opacity="1.000000" stroke="none" 
	d="
M216.396942,128.618515 
	C219.800980,128.744720 222.178970,129.739395 221.922104,133.229950 
	C221.662445,136.758316 218.898117,137.128448 216.114944,137.171997 
	C213.484299,137.213150 210.852493,137.180832 207.817627,137.180832 
	C207.817627,134.359543 207.817627,131.822098 207.817627,128.613098 
	C210.475388,128.613098 213.226074,128.613098 216.396942,128.618515 
z"/>
<path fill="#F8FBF7" opacity="1.000000" stroke="none" 
	d="
M403.291138,143.976913 
	C402.917603,147.399719 402.830292,150.425415 402.097595,153.285797 
	C401.211700,156.744110 398.424835,159.010056 395.047089,158.238388 
	C392.336761,157.619202 388.166321,155.479019 387.892792,153.552460 
	C386.981903,147.137161 387.026550,140.459000 387.727203,133.992355 
	C388.114655,130.416656 391.894501,128.267609 395.371460,129.272781 
	C397.982483,130.027634 400.799377,132.345108 402.094910,134.740234 
	C403.407990,137.167831 402.965179,140.545181 403.291138,143.976913 
z"/>
<path fill="#F8FBF7" opacity="1.000000" stroke="none" 
	d="
M338.397797,139.703613 
	C338.182251,144.242126 338.289246,148.407440 337.632477,152.448593 
	C337.002777,156.323074 334.225128,158.393555 330.197083,158.428055 
	C326.194092,158.462341 323.069794,156.485153 322.607849,152.655289 
	C321.943237,147.145493 321.899445,141.485657 322.317871,135.944763 
	C322.638306,131.701126 325.504272,129.112991 330.036987,129.067902 
	C334.596680,129.022552 336.990387,131.645538 337.943695,135.838043 
	C338.198730,136.959641 338.244537,138.128815 338.397797,139.703613 
z"/>
<path fill="#FBFDFA" opacity="1.000000" stroke="none" 
	d="
M145.623962,159.804977 
	C144.200409,163.350311 142.776855,166.895645 141.178131,170.740707 
	C128.304337,173.887360 115.630676,174.854889 102.676819,170.153122 
	C102.136475,169.314163 101.946419,168.858856 101.756355,168.403564 
	C100.015091,162.339554 98.273819,156.275543 96.083603,150.130081 
	C95.634659,150.048630 95.692871,149.885757 95.692871,149.885757 
	C95.202110,146.821686 94.711342,143.757599 94.062180,140.344391 
	C94.860161,139.441223 95.813919,138.409302 96.773300,138.404053 
	C114.439507,138.307236 132.106400,138.333191 150.407425,138.333191 
	C149.935196,140.492645 149.498215,142.490906 149.068680,144.922241 
	C148.039169,148.967270 147.002228,152.579269 145.821411,156.957062 
	C145.705521,158.453247 145.733490,159.183609 145.737442,159.873657 
	C145.713425,159.833344 145.623962,159.804977 145.623962,159.804977 
z"/>
<path fill="#F6FAF4" opacity="1.000000" stroke="none" 
	d="
M153.995041,134.101669 
	C132.247192,137.036087 110.515640,137.027588 88.576614,134.028046 
	C88.331612,132.690567 88.061462,131.597153 87.949104,130.487747 
	C87.850403,129.513214 87.928490,128.520767 87.928490,127.740128 
	C110.210037,127.740128 132.408920,127.740128 155.172272,127.740128 
	C155.127853,128.687546 155.046432,130.424347 154.816895,132.762573 
	C154.442673,133.608490 154.218094,133.854370 153.995041,134.101669 
z"/>
<path fill="#F3F8F1" opacity="1.000000" stroke="none" 
	d="
M125.522530,40.073952 
	C126.067337,39.727798 126.612144,39.381649 127.518356,38.249958 
	C127.603348,37.126621 127.326935,36.788826 127.050522,36.451031 
	C127.553986,36.146164 128.057449,35.841301 128.788055,35.745544 
	C129.981125,35.262787 130.947052,34.570919 131.883362,33.892975 
	C131.853760,33.906895 131.905701,33.947166 131.905701,33.947166 
	C132.969620,33.422871 134.033524,32.898571 135.219788,31.991135 
	C135.342148,31.607996 135.421463,31.641052 135.421463,31.641052 
	C136.941742,31.496033 138.462036,31.351011 140.466431,31.438097 
	C140.950562,31.670202 141.184158,31.982063 141.184143,31.982061 
	C140.778656,33.316395 140.373154,34.650726 139.651001,36.517677 
	C138.796570,38.152824 138.258820,39.255360 137.721069,40.357895 
	C136.138840,42.992699 134.556610,45.627506 132.670898,48.777752 
	C132.177826,49.830723 131.988220,50.368256 131.798599,50.905788 
	C131.484085,51.266479 131.169571,51.627171 130.543137,52.441166 
	C129.267166,54.126507 128.303116,55.358540 127.339073,56.590572 
	C123.975716,56.289772 120.612350,55.988968 117.188995,55.017250 
	C118.552399,49.432541 120.936157,46.462864 126.667007,49.058075 
	C127.565414,49.464920 129.097748,48.471912 130.336960,48.126186 
	C130.274384,47.720181 130.211823,47.314175 130.149246,46.908169 
	C127.903282,46.255093 125.657318,45.602013 123.314758,44.920849 
	C124.197845,42.982140 124.860184,41.528046 125.522530,40.073952 
z"/>
<path fill="#EEF6EC" opacity="1.000000" stroke="none" 
	d="
M157.571930,58.015503 
	C156.358261,59.998398 154.748001,61.893032 152.638947,64.192978 
	C151.224182,65.349297 150.308228,66.100304 149.392273,66.851318 
	C147.943130,67.660988 146.493988,68.470650 144.850739,69.533325 
	C143.584335,69.925255 142.512039,70.064171 141.541702,70.189873 
	C141.644577,59.312237 150.208282,59.668777 157.571930,58.015503 
z"/>
<path fill="#E6F1E2" opacity="1.000000" stroke="none" 
	d="
M97.744247,65.149277 
	C98.059029,64.604568 98.381546,64.339531 98.904465,64.007645 
	C101.344482,64.855560 103.584099,65.770317 106.004646,66.758972 
	C106.662773,65.323601 107.370674,63.779659 108.641304,61.008408 
	C110.145004,65.746964 111.280327,69.324669 112.695259,73.066940 
	C113.071465,73.407539 113.168068,73.583580 113.534935,73.892517 
	C112.560898,75.185501 111.316597,76.345596 110.072296,77.505692 
	C111.421608,69.880196 104.477997,70.842216 101.301270,67.676727 
	C100.624146,67.074425 100.337799,66.969543 100.009560,66.979034 
	C99.312492,66.462097 98.615417,65.945168 97.590195,65.618279 
	C97.262032,65.808319 97.270187,65.713570 97.270187,65.713570 
	C97.430786,65.618706 97.591385,65.523834 97.744247,65.149277 
z"/>
<path fill="#439726" opacity="1.000000" stroke="none" 
	d="
M125.268906,39.701538 
	C124.860184,41.528046 124.197845,42.982140 123.314758,44.920849 
	C125.657318,45.602013 127.903282,46.255093 130.149246,46.908169 
	C130.211823,47.314175 130.274384,47.720181 130.336960,48.126186 
	C129.097748,48.471912 127.565414,49.464920 126.667007,49.058075 
	C120.936157,46.462864 118.552399,49.432541 116.988663,54.683365 
	C116.435150,55.010708 116.021973,55.001011 115.298820,54.994537 
	C116.395538,48.536377 120.023026,43.496094 125.268906,39.701538 
z"/>
<path fill="#D7E9D1" opacity="1.000000" stroke="none" 
	d="
M132.708023,64.100990 
	C133.439392,63.864212 133.892654,63.831730 134.685760,63.754982 
	C136.295731,63.957359 137.565872,64.203995 138.836075,64.450348 
	C137.548950,70.825279 133.869400,73.146034 128.590317,71.060684 
	C129.197800,69.369148 129.796463,67.702171 130.261246,65.609085 
	C130.127365,65.182976 130.235138,65.205467 130.235138,65.205475 
	C130.966736,64.905411 131.698334,64.605347 132.708023,64.100990 
z"/>
<path fill="#3D9420" opacity="1.000000" stroke="none" 
	d="
M140.947113,95.609955 
	C138.076981,98.116974 135.150131,100.277130 132.037720,102.725777 
	C130.922180,102.360870 129.992157,101.707474 129.062149,101.054077 
	C129.705902,100.256783 130.456543,99.522926 130.974136,98.650764 
	C132.799866,95.574295 135.192642,93.512138 139.017883,94.071228 
	C139.685852,94.168854 140.268387,94.850937 140.947113,95.609955 
z"/>
<path fill="#E6F1E2" opacity="1.000000" stroke="none" 
	d="
M154.000778,86.980499 
	C152.447723,87.390984 150.894669,87.801468 148.941406,88.125626 
	C148.996506,87.018974 149.451813,85.998642 150.316895,84.619217 
	C151.187805,84.023300 151.648956,83.786469 152.537781,83.396423 
	C155.939819,83.275978 158.914185,83.308746 161.888550,83.341522 
	C159.805222,84.264923 157.721893,85.188316 155.146378,86.328415 
	C154.384735,86.612648 154.166931,86.757782 154.000778,86.980499 
z"/>
<path fill="#CFE5C8" opacity="1.000000" stroke="none" 
	d="
M124.171272,89.110817 
	C124.520950,89.084625 124.779480,88.917465 125.356583,88.327896 
	C126.851723,87.676582 127.937126,87.306717 129.022537,86.936859 
	C129.793945,87.145859 130.565338,87.354858 131.780853,87.684189 
	C131.132080,89.458557 130.507935,91.165581 129.493469,93.940163 
	C127.484970,92.797081 125.781990,91.827873 124.059250,90.219482 
	C124.039490,89.580292 124.171272,89.110817 124.171272,89.110817 
z"/>
<path fill="#68AB51" opacity="1.000000" stroke="none" 
	d="
M119.006516,89.544724 
	C118.155762,87.459396 116.190979,84.636475 116.727753,82.419144 
	C117.455185,79.414261 116.812912,77.570358 115.004044,75.249352 
	C116.264107,75.102646 117.543060,75.302887 119.007050,75.532097 
	C119.007050,79.836800 119.007050,84.456871 119.006516,89.544724 
z"/>
<path fill="#3D9420" opacity="1.000000" stroke="none" 
	d="
M125.451630,65.792488 
	C124.174263,68.472610 123.199715,70.952728 122.187973,73.527512 
	C119.437935,67.315811 120.588379,64.655792 126.883247,63.470612 
	C126.407402,64.365082 126.080925,64.978783 125.451630,65.792488 
z"/>
<path fill="#439726" opacity="1.000000" stroke="none" 
	d="
M123.864151,88.871880 
	C124.171272,89.110817 124.039490,89.580292 123.965485,89.812607 
	C123.401543,92.824440 122.911591,95.603966 122.421646,98.383484 
	C121.855125,98.345863 121.288605,98.308250 120.722084,98.270638 
	C121.214813,93.572327 121.707542,88.874023 122.599930,84.087662 
	C122.999580,83.999596 123.009628,84.006340 123.009628,84.006340 
	C123.192101,85.548538 123.374557,87.090744 123.864151,88.871880 
z"/>
<path fill="#439726" opacity="1.000000" stroke="none" 
	d="
M124.005478,81.003464 
	C124.005478,79.862679 124.005478,78.721893 124.005478,77.502602 
	C126.974495,78.331650 129.336288,78.991142 132.065399,79.753197 
	C129.788742,82.943855 127.292389,82.389748 124.328018,81.016724 
	C123.999809,80.999825 124.005478,81.003464 124.005478,81.003464 
z"/>
<path fill="#439726" opacity="1.000000" stroke="none" 
	d="
M91.312180,146.045624 
	C90.833801,145.441559 90.668785,144.881912 90.254608,144.159302 
	C90.247307,142.868484 90.489166,141.740585 90.869858,140.287079 
	C91.454422,139.962006 91.900162,139.962570 92.680389,139.975327 
	C93.381248,142.331299 93.747627,144.675079 94.173958,147.402328 
	C93.007843,146.801834 92.316696,146.445938 91.312180,146.045624 
z"/>
<path fill="#389119" opacity="1.000000" stroke="none" 
	d="
M141.367996,99.642220 
	C141.367996,99.642220 141.491409,99.488472 141.569611,99.437790 
	C140.704224,101.235725 139.760635,103.084343 138.267120,104.660690 
	C136.910889,103.737892 136.104584,103.087357 135.298264,102.436821 
	C136.514664,101.724571 137.731049,101.012314 139.559204,100.505661 
	C140.569977,100.354912 140.968979,99.998566 141.367996,99.642220 
z"/>
<path fill="#439726" opacity="1.000000" stroke="none" 
	d="
M129.158005,86.656349 
	C127.937126,87.306717 126.851723,87.676582 125.419418,88.096970 
	C126.537766,86.389420 128.003006,84.631340 129.468231,82.873260 
	C129.900177,83.207680 130.332123,83.542091 130.764053,83.876511 
	C130.273865,84.709618 129.783661,85.542732 129.158005,86.656349 
z"/>
<path fill="#3D9420" opacity="1.000000" stroke="none" 
	d="
M146.643097,88.140427 
	C145.150833,88.678528 143.860321,89.001976 142.569794,89.325417 
	C142.395966,89.128159 142.222122,88.930893 142.048294,88.733635 
	C143.521072,87.386322 144.993866,86.039009 146.466660,84.691696 
	C146.788681,84.905739 147.110703,85.119781 147.432724,85.333824 
	C147.236755,86.197807 147.040802,87.061783 146.643097,88.140427 
z"/>
<path fill="#439726" opacity="1.000000" stroke="none" 
	d="
M136.954834,82.975784 
	C137.523270,83.148621 137.807114,83.288147 138.090942,83.427666 
	C137.179611,84.263504 136.268280,85.099350 134.712540,86.526230 
	C134.083481,84.440491 133.634903,82.953201 133.186325,81.465904 
	C133.517410,81.285416 133.848495,81.104927 134.179581,80.924438 
	C135.009796,81.597115 135.840012,82.269791 136.954834,82.975784 
z"/>
<path fill="#439726" opacity="1.000000" stroke="none" 
	d="
M127.764313,56.708691 
	C128.303116,55.358540 129.267166,54.126507 130.496689,52.683044 
	C131.574158,53.028694 132.386154,53.585773 133.667816,54.465065 
	C132.444336,55.227051 131.083893,56.074333 129.391052,56.951252 
	C128.768967,56.929531 128.479263,56.878170 127.764313,56.708691 
z"/>
<path fill="#3D9420" opacity="1.000000" stroke="none" 
	d="
M135.312332,102.456802 
	C136.104584,103.087357 136.910889,103.737892 137.911591,104.729599 
	C136.616058,106.847412 135.090332,108.328659 133.319611,105.439354 
	C134.148590,104.301384 134.722000,103.406334 135.295395,102.511276 
	C135.295395,102.511276 135.326401,102.476791 135.312332,102.456802 
z"/>
<path fill="#439726" opacity="1.000000" stroke="none" 
	d="
M152.110107,83.549637 
	C151.648956,83.786469 151.187805,84.023300 150.471191,84.319550 
	C149.622177,83.633102 149.028641,82.887222 148.088409,81.705696 
	C149.315903,81.445137 150.290298,81.238297 151.633423,81.025101 
	C152.002136,81.018738 151.993179,81.484680 152.016968,82.117966 
	C152.063889,83.017380 152.086990,83.283508 152.110107,83.549637 
z"/>
<path fill="#68AB51" opacity="1.000000" stroke="none" 
	d="
M117.961655,98.341721 
	C118.080276,96.205490 118.224541,94.394119 118.660240,92.348587 
	C118.927994,94.708145 118.904793,97.301865 118.862175,99.895271 
	C118.862015,99.904724 118.471672,99.958511 118.449585,99.908844 
	C118.270340,99.505943 118.135590,99.083244 117.961655,98.341721 
z"/>
<path fill="#439726" opacity="1.000000" stroke="none" 
	d="
M91.135399,138.701553 
	C90.571037,139.011292 90.129997,139.008881 89.358841,139.002228 
	C89.568047,138.036087 90.107361,137.074173 90.646675,136.112259 
	C90.850693,136.871307 91.054710,137.630356 91.135399,138.701553 
z"/>
<path fill="#389119" opacity="1.000000" stroke="none" 
	d="
M135.039978,102.582672 
	C134.722000,103.406334 134.148590,104.301384 133.279602,105.086243 
	C132.983444,104.793488 132.982864,104.610916 132.977783,104.154510 
	C133.577042,103.471802 134.180786,103.062935 135.039978,102.582672 
z"/>
<path fill="#389119" opacity="1.000000" stroke="none" 
	d="
M154.003143,134.447205 
	C154.218094,133.854370 154.442673,133.608490 154.839554,133.181747 
	C155.010330,132.999496 155.504547,132.995987 155.753189,133.379761 
	C156.004654,134.530075 156.007492,135.296631 156.010315,136.063187 
	C156.010315,136.063187 156.004791,136.532791 156.001175,136.767609 
	C155.997559,137.002441 156.000000,137.000000 156.001221,136.998856 
	C155.338715,136.262711 154.674988,135.527725 154.003143,134.447205 
z"/>
<path fill="#439726" opacity="1.000000" stroke="none" 
	d="
M156.356323,136.014893 
	C156.007492,135.296631 156.004654,134.530075 156.000305,133.381149 
	C158.263382,133.506821 158.727310,134.441711 156.356323,136.014893 
z"/>
<path fill="#3D9420" opacity="1.000000" stroke="none" 
	d="
M130.141632,65.236145 
	C129.671997,64.972267 129.188065,64.655228 128.704147,64.338188 
	C128.892975,64.128159 129.081787,63.918133 129.270615,63.708107 
	C129.538330,64.024864 129.806061,64.341621 130.154449,64.931923 
	C130.235138,65.205467 130.127365,65.182976 130.141632,65.236145 
z"/>
<path fill="#389119" opacity="1.000000" stroke="none" 
	d="
M143.412018,98.708908 
	C143.592255,98.361237 143.650955,98.394737 143.675995,98.365837 
	C143.759949,99.212669 143.818848,100.088402 143.877747,100.964134 
	C143.662430,100.971260 143.447113,100.978394 143.231796,100.985519 
	C143.231796,100.342537 143.231796,99.699562 143.412018,98.708908 
z"/>
<path fill="#439726" opacity="1.000000" stroke="none" 
	d="
M123.996796,80.996826 
	C123.845154,81.863983 123.696533,82.734146 123.278770,83.805321 
	C123.009628,84.006340 122.999580,83.999596 122.994583,83.994675 
	C123.144028,83.121986 123.298462,82.254211 123.729187,81.194946 
	C124.005478,81.003464 123.999809,80.999825 123.996796,80.996826 
z"/>
<path fill="#439726" opacity="1.000000" stroke="none" 
	d="
M152.298416,138.837845 
	C152.584244,138.491516 152.839630,138.369431 153.095016,138.247345 
	C153.167862,138.493088 153.240707,138.738815 153.313553,138.984558 
	C152.965027,139.010406 152.616501,139.036240 152.298416,138.837845 
z"/>
<path fill="#FEFFFE" opacity="1.000000" stroke="none" 
	d="
M135.114990,58.764652 
	C134.492737,58.797863 133.986450,58.596016 133.480179,58.394173 
	C133.865219,58.061039 134.250259,57.727913 134.837067,57.718315 
	C135.102859,58.204430 135.166916,58.367012 135.114990,58.764652 
z"/>
<path fill="#439726" opacity="1.000000" stroke="none" 
	d="
M158.007858,128.994507 
	C158.270523,129.354004 158.527893,129.717972 158.760468,130.097153 
	C158.768051,130.109497 158.522354,130.277206 158.394714,130.372482 
	C158.266190,130.087311 158.137665,129.802139 157.995605,129.267487 
	C157.982071,129.017990 157.998734,129.001343 158.007858,128.994507 
z"/>
<path fill="#3D9420" opacity="1.000000" stroke="none" 
	d="
M141.752930,91.995758 
	C141.587570,92.106804 141.420883,92.052490 141.254196,91.998177 
	C141.419998,91.942253 141.585800,91.886330 141.752930,91.995758 
z"/>
<path fill="#68AB51" opacity="1.000000" stroke="none" 
	d="
M117.354370,72.283424 
	C117.372078,71.983322 117.506897,71.824348 117.641708,71.665375 
	C117.584976,71.918434 117.528229,72.171494 117.354370,72.283424 
z"/>
<path fill="#3D9420" opacity="1.000000" stroke="none" 
	d="
M127.287636,67.659348 
	C127.009064,67.644669 126.857109,67.498634 126.705154,67.352600 
	C126.941521,67.411064 127.177887,67.469536 127.287636,67.659348 
z"/>
<path fill="#389119" opacity="1.000000" stroke="none" 
	d="
M116.025536,105.982819 
	C116.165321,106.125702 116.277161,106.293846 116.389000,106.461990 
	C116.289795,106.420387 116.190590,106.378792 116.019966,106.201233 
	C115.948547,106.065277 115.997597,106.008087 116.025536,105.982819 
z"/>
<path fill="#3D9420" opacity="1.000000" stroke="none" 
	d="
M140.020798,61.030403 
	C139.918320,61.071796 139.784943,61.079395 139.786194,61.011787 
	C139.920792,60.936584 139.989914,60.996613 140.020798,61.030403 
z"/>
<path fill="#2D8B0D" opacity="1.000000" stroke="none" 
	d="
M106.974411,96.588776 
	C105.159126,95.589455 103.350876,94.228569 101.542633,92.867691 
	C101.303894,93.215141 101.065155,93.562592 100.826416,93.910049 
	C101.543732,95.624733 102.261040,97.339424 102.582397,99.404907 
	C99.794319,99.456940 97.402206,99.158165 95.010086,98.859390 
	C98.966927,97.231712 97.868103,93.303406 99.146866,90.016205 
	C99.406349,89.693459 99.641846,89.851456 100.005875,89.887466 
	C101.251938,89.367409 102.133980,88.811348 103.327217,88.138535 
	C103.884491,87.681503 104.130569,87.341217 104.376648,87.000938 
	C107.412788,87.777313 111.124191,87.746132 111.299133,92.595169 
	C111.685051,91.406502 112.070969,90.217827 112.774155,88.051926 
	C112.879890,90.430984 112.941666,91.820808 113.001678,93.605370 
	C112.999916,94.000107 112.994583,94.007294 112.994583,94.007294 
	C111.378296,94.279236 109.762009,94.551170 107.185623,94.984642 
	C107.276939,94.428947 107.129189,95.328087 106.974411,96.588776 
z"/>
<path fill="#E6F1E2" opacity="1.000000" stroke="none" 
	d="
M94.644913,98.899933 
	C97.402206,99.158165 99.794319,99.456940 102.588112,99.748795 
	C103.552338,100.538254 104.114899,101.334625 104.677460,102.131012 
	C104.001511,102.393059 103.325562,102.655113 101.860519,102.970062 
	C97.379372,103.055969 93.687309,103.088974 89.620033,103.003220 
	C88.216087,102.679146 87.187355,102.473831 86.158623,102.268509 
	C85.993607,102.036484 85.771141,101.894402 85.291862,101.810593 
	C84.605606,100.625977 84.118721,99.473045 83.335442,97.618279 
	C87.386200,98.107658 90.832970,98.524071 94.644913,98.899933 
z"/>
<path fill="#68AB51" opacity="1.000000" stroke="none" 
	d="
M55.489002,97.941788 
	C55.450935,96.947403 55.600815,95.327606 56.150200,95.178352 
	C57.820511,94.724579 59.645138,94.838821 61.711945,94.505753 
	C67.232208,94.555618 72.450195,94.831635 77.668190,95.107658 
	C77.673401,95.372452 77.678604,95.637245 77.683815,95.902039 
	C72.036087,95.902039 66.388367,95.902039 59.698898,95.902039 
	C61.078758,97.607285 61.768314,98.459442 62.736996,99.656548 
	C60.193825,99.039833 58.026726,98.514320 55.489002,97.941788 
z"/>
<path fill="#E6F1E2" opacity="1.000000" stroke="none" 
	d="
M84.720963,57.100803 
	C86.984840,58.988998 89.261726,60.862041 91.498672,62.781616 
	C91.836472,63.071491 91.988205,63.578186 92.278084,64.073593 
	C90.428963,66.791824 88.517723,67.133636 86.679688,64.253342 
	C85.133873,61.830978 83.828148,59.255333 82.432678,56.738377 
	C82.421852,56.718864 82.633102,56.516342 82.755394,56.498123 
	C82.906952,56.475552 83.073891,56.556316 83.647125,56.781872 
	C84.060074,56.971306 84.375694,57.111668 84.375694,57.111668 
	C84.375694,57.111668 84.720963,57.100803 84.720963,57.100803 
z"/>
<path fill="#CFE5C8" opacity="1.000000" stroke="none" 
	d="
M104.046494,86.822403 
	C104.130569,87.341217 103.884491,87.681503 102.951630,88.003815 
	C101.390511,88.607719 100.516182,89.229584 99.641846,89.851456 
	C99.641846,89.851456 99.406349,89.693459 99.264740,89.688843 
	C98.242874,88.798592 97.508141,87.619003 96.449013,87.094643 
	C94.766235,86.261513 92.866936,85.865753 90.550964,85.121681 
	C94.994453,82.756683 96.851112,83.039948 104.046494,86.822403 
z"/>
<path fill="#CFE5C8" opacity="1.000000" stroke="none" 
	d="
M79.450294,101.272583 
	C77.621742,100.806709 76.227310,100.325096 74.467056,99.790260 
	C73.004288,99.180801 71.907341,98.624565 69.606903,97.458061 
	C74.243019,97.458061 77.562134,97.458061 81.690681,97.458061 
	C80.978081,98.956741 80.431244,100.106789 79.450294,101.272583 
z"/>
<path fill="#68AB51" opacity="1.000000" stroke="none" 
	d="
M51.444496,79.947784 
	C51.017910,79.935402 50.930790,79.445625 50.849892,79.209381 
	C55.423145,77.038048 59.709740,76.927116 63.089622,81.752357 
	C62.017159,81.802704 60.954098,81.852608 59.426094,81.607414 
	C58.301270,80.963417 57.641396,80.614517 56.981522,80.265617 
	C55.278042,80.163803 53.574566,80.061981 51.444496,79.947784 
z"/>
<path fill="#3D9420" opacity="1.000000" stroke="none" 
	d="
M85.181290,57.059067 
	C84.720963,57.100803 84.375694,57.111668 84.375694,57.111668 
	C84.375694,57.111668 84.060074,56.971306 83.954865,56.834770 
	C83.251343,55.476990 82.653038,54.255749 81.454094,51.808498 
	C83.982491,53.197880 85.403442,53.978714 87.019653,55.064178 
	C87.313042,55.685139 87.368591,56.008778 87.431961,56.581211 
	C86.868790,56.887573 86.255203,56.952450 85.181290,57.059067 
z"/>
<path fill="#3D9420" opacity="1.000000" stroke="none" 
	d="
M99.879707,67.286438 
	C100.337799,66.969543 100.624146,67.074425 100.982155,67.497345 
	C100.689766,69.285873 100.283821,70.870728 99.877876,72.455589 
	C99.408127,72.332672 98.938385,72.209763 98.468636,72.086853 
	C98.895706,70.589180 99.322784,69.091507 99.879707,67.286438 
z"/>
<path fill="#3D9420" opacity="1.000000" stroke="none" 
	d="
M67.044647,82.391235 
	C67.287285,82.788666 67.285591,83.184196 67.255295,83.577538 
	C67.254448,83.588562 66.947876,83.576042 66.783859,83.574509 
	C66.788017,83.179352 66.792175,82.784203 67.044647,82.391235 
z"/>
<path fill="#3D9420" opacity="1.000000" stroke="none" 
	d="
M57.051735,80.567192 
	C57.641396,80.614517 58.301270,80.963417 59.067635,81.607681 
	C58.490059,81.558281 57.806004,81.213524 57.051735,80.567192 
z"/>
<path fill="#3D9420" opacity="1.000000" stroke="none" 
	d="
M76.972519,51.512169 
	C77.664146,52.104057 78.384064,52.735077 79.103989,53.366100 
	C78.919914,53.543541 78.735840,53.720982 78.551765,53.898426 
	C78.024940,53.336414 77.498108,52.774403 76.939346,51.865868 
	C76.907425,51.519348 77.000816,51.551300 76.972519,51.512169 
z"/>
<path fill="#3D9420" opacity="1.000000" stroke="none" 
	d="
M97.309387,65.803955 
	C96.981941,66.439972 96.607132,67.080345 96.232330,67.720718 
	C95.995331,67.557068 95.758331,67.393410 95.521324,67.229752 
	C95.896370,66.787651 96.271408,66.345551 96.958313,65.808502 
	C97.270187,65.713570 97.262032,65.808319 97.309387,65.803955 
z"/>
<path fill="#3D9420" opacity="1.000000" stroke="none" 
	d="
M88.701424,69.159676 
	C88.418839,69.499123 88.167610,69.618820 87.916374,69.738510 
	C87.844460,69.497307 87.772552,69.256096 87.700645,69.014893 
	C88.044685,68.989906 88.388733,68.964912 88.701424,69.159676 
z"/>
<path fill="#439726" opacity="1.000000" stroke="none" 
	d="
M70.606178,103.121590 
	C70.932121,102.644936 71.310745,102.167984 71.689369,101.691025 
	C71.892967,101.901321 72.096565,102.111610 72.300163,102.321907 
	C71.951271,102.588585 71.602371,102.855255 70.950790,103.174011 
	C70.648094,103.226097 70.658859,103.121292 70.606178,103.121590 
z"/>
<path fill="#68AB51" opacity="1.000000" stroke="none" 
	d="
M67.283447,79.073303 
	C67.783348,79.174171 68.047890,79.314079 68.312424,79.453979 
	C67.895042,79.563011 67.481331,79.695023 67.057358,79.762886 
	C66.965828,79.777534 66.753487,79.563843 66.749847,79.450424 
	C66.746338,79.341026 66.940674,79.225288 67.283447,79.073303 
z"/>
<path fill="#3D9420" opacity="1.000000" stroke="none" 
	d="
M102.257568,73.642570 
	C102.007126,73.627663 101.870956,73.494972 101.734795,73.362282 
	C101.947151,73.416451 102.159500,73.470619 102.257568,73.642570 
z"/>
<path fill="#3D9420" opacity="1.000000" stroke="none" 
	d="
M88.645050,95.742065 
	C88.630318,95.992287 88.496704,96.128578 88.363091,96.264870 
	C88.417450,96.052628 88.471809,95.840385 88.645050,95.742065 
z"/>
<path fill="#2D8B0D" opacity="1.000000" stroke="none" 
	d="
M113.003151,93.997574 
	C113.128525,94.138626 113.250664,94.282204 113.372803,94.425781 
	C113.287483,94.376648 113.202164,94.327522 113.055710,94.142845 
	C112.994583,94.007294 112.999916,94.000107 113.003151,93.997574 
z"/>
<path fill="#68AB51" opacity="1.000000" stroke="none" 
	d="
M49.812508,78.968117 
	C49.795887,79.078949 49.466534,79.189568 49.005741,79.134346 
	C49.082798,78.968300 49.291286,78.968102 49.812508,78.968117 
z"/>
<path fill="#439726" opacity="1.000000" stroke="none" 
	d="
M137.790680,40.771561 
	C138.258820,39.255360 138.796570,38.152824 139.586609,36.863594 
	C140.979156,36.467171 142.119415,36.257442 144.018997,35.908054 
	C141.988022,39.705994 139.977524,43.465649 137.967010,47.225307 
	C137.577393,47.010258 137.187775,46.795212 136.798172,46.580166 
	C137.152206,44.781853 137.506241,42.983540 137.790680,40.771561 
z"/>
<path fill="#439726" opacity="1.000000" stroke="none" 
	d="
M141.411438,31.865181 
	C141.184158,31.982063 140.950562,31.670202 140.928558,31.476637 
	C139.882095,30.649345 138.857666,30.015617 137.853577,29.394484 
	C140.687698,26.083693 140.687698,26.083693 142.963623,30.634466 
	C142.999573,31.000500 142.977661,31.022179 142.977661,31.022179 
	C142.531342,31.264221 142.085037,31.506262 141.411438,31.865181 
z"/>
<path fill="#439726" opacity="1.000000" stroke="none" 
	d="
M132.141785,51.048317 
	C131.988220,50.368256 132.177826,49.830723 132.600479,49.124107 
	C133.800354,49.626690 134.767181,50.298355 135.734009,50.970016 
	C134.650986,51.043625 133.567978,51.117237 132.141785,51.048317 
z"/>
<path fill="#439726" opacity="1.000000" stroke="none" 
	d="
M131.922974,33.539162 
	C131.905701,33.947166 131.853760,33.906895 131.439819,33.594368 
	C130.345901,33.190102 129.665955,33.098354 128.985992,33.006611 
	C128.985992,33.006611 128.998901,32.999557 128.995911,33.006832 
	C129.575394,32.166454 130.157867,31.318804 130.740356,30.471151 
	C131.140320,31.357821 131.540268,32.244492 131.922974,33.539162 
z"/>
<path fill="#439726" opacity="1.000000" stroke="none" 
	d="
M143.010727,30.989952 
	C143.625198,31.530039 144.228516,32.080673 144.831833,32.631310 
	C144.550278,32.929909 144.268723,33.228504 143.987167,33.527100 
	C143.659088,32.919460 143.330994,32.311821 142.990295,31.363182 
	C142.977661,31.022179 142.999573,31.000500 143.010727,30.989952 
z"/>
<path fill="#439726" opacity="1.000000" stroke="none" 
	d="
M135.577881,31.332664 
	C135.421463,31.641052 135.342148,31.607996 135.303665,31.634602 
	C135.069565,31.049215 134.873947,30.437223 134.678314,29.825233 
	C134.830490,29.752939 134.982681,29.680645 135.134857,29.608351 
	C135.334671,30.080324 135.534485,30.552299 135.577881,31.332664 
z"/>
<path fill="#2D8B0D" opacity="1.000000" stroke="none" 
	d="
M152.537781,83.396423 
	C152.086990,83.283508 152.063889,83.017380 152.012695,82.350937 
	C152.542877,81.804802 153.101151,81.658989 154.276855,81.263443 
	C157.588089,81.109245 160.281891,81.204773 162.975677,81.300308 
	C162.662430,81.791977 162.349182,82.283638 161.962234,83.058411 
	C158.914185,83.308746 155.939819,83.275978 152.537781,83.396423 
z"/>
<path fill="#68AB51" opacity="1.000000" stroke="none" 
	d="
M163.023010,81.185135 
	C160.281891,81.204773 157.588089,81.109245 154.443939,81.018951 
	C157.096909,80.356529 160.200241,79.688889 163.577225,79.285645 
	C163.597153,79.973923 163.343430,80.397812 163.089706,80.821693 
	C163.089706,80.821693 163.070343,81.069977 163.023010,81.185135 
z"/>
<path fill="#CFE5C8" opacity="1.000000" stroke="none" 
	d="
M163.482956,80.826324 
	C163.343430,80.397812 163.597153,79.973923 164.022659,79.368256 
	C165.680084,79.165192 167.177933,79.053818 168.633896,79.251328 
	C168.792816,79.272896 168.710373,81.073685 168.368256,82.023102 
	C167.996628,81.996986 168.044540,82.038513 167.980667,81.784531 
	C167.607712,81.428925 167.298645,81.327301 166.989563,81.225677 
	C165.951782,81.094101 164.913986,80.962532 163.482956,80.826324 
z"/>
<path fill="#439726" opacity="1.000000" stroke="none" 
	d="
M153.963867,87.295502 
	C154.166931,86.757782 154.384735,86.612648 154.851425,86.538239 
	C155.611298,87.245674 156.173935,87.959976 156.736572,88.674286 
	C155.552139,89.230133 154.367706,89.785973 152.428070,90.696220 
	C153.236786,89.031364 153.581863,88.320938 153.963867,87.295502 
z"/>
<path fill="#439726" opacity="1.000000" stroke="none" 
	d="
M159.123016,87.723137 
	C159.221970,87.248108 159.360657,86.998611 159.499359,86.749115 
	C159.637589,86.998329 159.935730,87.304138 159.872742,87.482147 
	C159.797485,87.694771 159.413162,87.798027 159.123016,87.723137 
z"/>
<path fill="#439726" opacity="1.000000" stroke="none" 
	d="
M163.352753,86.259872 
	C163.367569,86.006126 163.502365,85.868004 163.637177,85.729889 
	C163.582367,85.945099 163.527557,86.160301 163.352753,86.259872 
z"/>
<path fill="#439726" opacity="1.000000" stroke="none" 
	d="
M164.448700,83.534592 
	C164.415131,83.478310 164.482269,83.590881 164.448700,83.534592 
z"/>
<path fill="#CFE5C8" opacity="1.000000" stroke="none" 
	d="
M167.971710,81.977386 
	C167.702469,82.179382 167.458130,82.400978 167.375671,82.316185 
	C167.706528,82.019371 167.875534,82.028938 168.044540,82.038513 
	C168.044540,82.038513 167.996628,81.996986 167.971710,81.977386 
z"/>
<path fill="#439726" opacity="1.000000" stroke="none" 
	d="
M167.980667,81.784531 
	C167.875534,82.028938 167.706528,82.019371 167.287018,82.050949 
	C167.036514,82.092110 167.003693,81.659172 166.996628,81.442429 
	C167.298645,81.327301 167.607712,81.428925 167.980667,81.784531 
z"/>
<path fill="#3D9420" opacity="1.000000" stroke="none" 
	d="
M149.841095,66.885315 
	C150.308228,66.100304 151.224182,65.349297 152.461853,64.443893 
	C151.952362,65.166115 151.121140,66.042717 149.841095,66.885315 
z"/>
<path fill="#439726" opacity="1.000000" stroke="none" 
	d="
M101.425674,168.230835 
	C101.946419,168.858856 102.136475,169.314163 102.343994,169.958267 
	C101.852806,170.703812 101.344162,171.260559 100.447510,171.874359 
	C99.331940,170.071930 98.604393,168.212448 97.494682,165.376221 
	C99.198578,166.645447 100.146790,167.351761 101.425674,168.230835 
z"/>
<path fill="#68AB51" opacity="1.000000" stroke="none" 
	d="
M144.302887,170.976334 
	C144.409088,170.073990 144.798828,169.169037 145.188568,168.264084 
	C145.430466,168.604111 145.672363,168.944122 145.916367,169.611588 
	C145.474442,170.283920 145.030426,170.628830 144.302887,170.976334 
z"/>
<path fill="#68AB51" opacity="1.000000" stroke="none" 
	d="
M143.251892,171.974182 
	C143.152161,171.729950 143.321198,171.445099 143.735367,171.091400 
	C143.827240,171.326218 143.673950,171.629898 143.251892,171.974182 
z"/>
<path fill="#68AB51" opacity="1.000000" stroke="none" 
	d="
M142.236481,172.294434 
	C142.165878,172.129532 142.588791,172.048615 142.801849,172.017578 
	C142.778976,172.144150 142.543030,172.301758 142.236481,172.294434 
z"/>
<path fill="#3D9420" opacity="1.000000" stroke="none" 
	d="
M105.279900,58.396301 
	C105.152336,58.557449 104.931656,58.580875 104.710968,58.604301 
	C104.869568,58.489063 105.028175,58.373825 105.279900,58.396301 
z"/>
<path fill="#439726" opacity="1.000000" stroke="none" 
	d="
M95.393005,149.657898 
	C95.692871,149.885757 95.634659,150.048630 95.673264,150.085007 
	C94.821739,150.121384 93.931610,150.121384 93.041481,150.121384 
	C93.062729,149.795670 93.083977,149.469940 93.105225,149.144226 
	C93.767860,149.239502 94.430496,149.334778 95.393005,149.657898 
z"/>
<path fill="#439726" opacity="1.000000" stroke="none" 
	d="
M95.783401,156.396042 
	C96.209183,156.536804 96.468491,156.807480 96.705238,157.096619 
	C96.715431,157.109070 96.517715,157.291748 96.416855,157.395111 
	C96.148819,157.106537 95.880783,156.817947 95.783401,156.396042 
z"/>
<path fill="#3D9420" opacity="1.000000" stroke="none" 
	d="
M128.970825,33.363220 
	C129.665955,33.098354 130.345901,33.190102 131.469421,33.580448 
	C130.947052,34.570919 129.981125,35.262787 128.738174,35.504646 
	C128.625992,34.609707 128.790833,34.164772 128.970825,33.363220 
z"/>
<path fill="#3D9420" opacity="1.000000" stroke="none" 
	d="
M126.695145,36.702938 
	C127.326935,36.788826 127.603348,37.126621 127.474701,37.978455 
	C126.826347,37.979946 126.583054,37.467396 126.695145,36.702938 
z"/>
<path fill="#68AB51" opacity="1.000000" stroke="none" 
	d="
M147.901794,163.556061 
	C147.581268,164.712967 147.290115,165.500259 146.978973,166.613495 
	C146.613327,164.837784 146.267639,162.736130 145.772964,160.219727 
	C145.623962,159.804977 145.713425,159.833344 146.048340,159.809616 
	C146.608078,159.214233 146.832901,158.642578 147.057709,158.070923 
	C147.348862,159.776108 147.639999,161.481277 147.901794,163.556061 
z"/>
<path fill="#389119" opacity="1.000000" stroke="none" 
	d="
M146.940430,157.834991 
	C146.832901,158.642578 146.608078,159.214233 146.072357,159.849930 
	C145.733490,159.183609 145.705521,158.453247 145.829010,157.359650 
	C146.261383,157.197296 146.542252,157.398178 146.940430,157.834991 
z"/>
<path fill="#439726" opacity="1.000000" stroke="none" 
	d="
M89.995247,103.121979 
	C93.687309,103.088974 97.379372,103.055969 101.529289,103.072418 
	C101.966850,104.222061 101.946556,105.322243 101.950157,106.703606 
	C98.202736,106.102425 94.431427,105.220055 90.329758,104.168411 
	C89.999390,103.999146 90.000000,104.000000 89.999023,103.780640 
	C89.998047,103.561287 89.995247,103.121979 89.995247,103.121979 
z"/>
<path fill="#3D9420" opacity="1.000000" stroke="none" 
	d="
M89.620033,103.003220 
	C89.995247,103.121979 89.998047,103.561287 89.999329,103.780945 
	C88.777367,103.681664 87.554123,103.362724 86.244751,102.656143 
	C87.187355,102.473831 88.216087,102.679146 89.620033,103.003220 
z"/>
<path fill="#2D8B0D" opacity="1.000000" stroke="none" 
	d="
M140.869141,99.472687 
	C140.968979,99.998566 140.569977,100.354912 139.781158,100.815811 
	C139.717651,100.381294 140.043961,99.842224 140.869141,99.472687 
z"/>
<path fill="#389119" opacity="1.000000" stroke="none" 
	d="
M100.005875,89.887466 
	C100.516182,89.229584 101.390511,88.607719 102.640442,88.120560 
	C102.133980,88.811348 101.251938,89.367409 100.005875,89.887466 
z"/>
</svg>